<?xml version="1.0" standalone="no"?>
<!DOCTYPE svg PUBLIC "-//W3C//DTD SVG 20010904//EN"
 "http://www.w3.org/TR/2001/REC-SVG-20010904/DTD/svg10.dtd">
<svg version="1.0" xmlns="http://www.w3.org/2000/svg"
 width="1024.000000pt" height="1024.000000pt" viewBox="0 0 1024.000000 1024.000000"
 preserveAspectRatio="xMidYMid meet">
<metadata>
Created by potrace 1.11, written by Peter Selinger 2001-2013
</metadata>
<g transform="translate(0.000000,1024.000000) scale(0.100000,-0.100000)"
fill="#000000" stroke="none">
<path d="M4407 10164 c-1 -1 -25 -5 -54 -8 -44 -4 -102 -14 -258 -41 -114 -21
-218 -61 -238 -92 -12 -19 -35 -16 -42 6 -6 19 -14 17 -148 -29 -78 -26 -177
-65 -219 -85 -74 -36 -138 -84 -138 -104 0 -5 -37 -36 -82 -67 -240 -168 -341
-255 -369 -320 -11 -23 -37 -58 -59 -78 -52 -47 -200 -156 -313 -231 -102 -67
-101 -61 -24 -173 140 -203 339 -301 525 -258 199 46 327 106 352 166 11 26
18 30 51 30 41 0 53 -18 19 -27 -11 -3 -20 -7 -20 -10 0 -9 41 -83 46 -83 5 0
342 193 587 337 60 34 111 63 113 63 2 0 23 11 45 26 99 62 110 66 128 49 19
-16 40 -20 42 -7 6 58 24 91 57 103 16 6 48 39 77 81 51 73 118 138 142 138 7
0 13 6 13 14 0 20 64 213 90 270 12 27 33 59 47 72 24 22 25 24 13 96 -6 40
-14 93 -17 118 -3 25 -6 46 -7 47 -1 1 -22 -7 -46 -18 -60 -27 -145 -27 -206
1 -38 16 -96 24 -107 14z"/>
<path d="M3166 8658 c-54 -7 -156 -57 -248 -120 l-63 -43 12 -85 c7 -47 15
-102 18 -123 3 -21 8 -49 11 -61 3 -12 -4 -47 -16 -77 -18 -48 -64 -222 -72
-274 -2 -13 2 -19 11 -17 20 4 7 -127 -22 -214 -17 -51 -21 -81 -17 -118 8
-65 -1 -215 -16 -267 -3 -9 2 -35 11 -57 16 -39 16 -40 -10 -68 -15 -16 -33
-41 -41 -56 -14 -28 -14 -28 16 -28 28 0 30 -2 20 -20 -8 -16 -64 -51 -87 -55
-1 0 7 -59 18 -130 25 -174 25 -274 -1 -324 l-19 -39 21 -5 c23 -6 23 -7 -5
-164 l-12 -73 -206 -207 c-183 -187 -289 -306 -289 -327 0 -5 -29 -40 -64 -80
-65 -73 -287 -354 -336 -426 -8 -12 -32 -44 -53 -71 -22 -27 -60 -100 -86
-162 -85 -198 -146 -309 -218 -388 -43 -48 -104 -89 -131 -89 -30 0 -32 -10
-13 -49 32 -65 22 -112 -54 -251 -38 -69 -83 -152 -101 -185 l-33 -60 21 -37
21 -37 -25 -25 c-27 -28 -43 -69 -66 -176 -20 -91 -25 -119 -47 -303 -25 -203
-26 -341 -4 -412 9 -27 27 -87 39 -133 l23 -82 -22 -113 c-26 -139 -26 -156 0
-218 l22 -50 -38 -92 c-20 -51 -40 -98 -42 -104 -3 -7 2 -13 10 -13 33 0 37
-85 7 -156 l-20 -47 20 -14 c11 -8 29 -33 40 -56 l21 -42 -21 -14 c-30 -20
-29 -154 1 -206 l22 -36 -22 -6 c-11 -3 -21 -8 -21 -12 0 -12 15 -28 29 -33 8
-2 16 -15 18 -29 43 -298 113 -546 189 -671 47 -77 94 -115 163 -129 113 -23
179 -79 207 -178 13 -44 14 -55 3 -62 -7 -4 -17 -5 -21 -3 -12 8 -10 -4 7 -35
46 -90 233 -197 529 -302 122 -44 128 -45 120 -24 -4 9 1 18 10 21 26 10 31
-4 13 -35 -9 -16 -17 -33 -17 -38 0 -4 99 -7 221 -6 166 1 224 5 236 15 23 19
43 72 43 113 0 33 2 36 23 30 12 -4 26 -11 32 -16 5 -5 21 -9 35 -9 24 0 27 4
28 37 3 85 59 255 155 471 l55 124 -23 56 c-13 31 -22 65 -20 77 2 11 6 40 9
64 12 83 64 147 127 157 l36 6 -74 72 c-41 39 -79 72 -84 74 -24 9 -4 18 46
20 31 1 74 9 96 16 38 13 42 13 61 -6 19 -19 21 -19 30 -4 18 33 143 536 154
621 3 22 7 46 10 53 4 15 -42 62 -62 62 -10 0 -12 10 -8 37 12 76 49 116 120
131 46 9 51 31 18 80 -25 36 -25 36 -4 44 24 9 23 4 25 96 1 39 -2 72 -7 72
-5 0 -22 -7 -39 -15 -42 -22 -50 -13 -40 48 0 4 13 7 29 7 37 0 67 22 96 73
41 71 85 226 101 362 3 22 7 51 10 65 2 14 7 49 10 78 5 43 4 52 -10 52 -26 0
-28 28 -3 58 13 15 36 59 51 97 16 39 33 78 38 87 13 25 11 50 -7 94 -15 36
-15 42 0 85 10 25 18 77 20 114 4 83 -15 112 -83 123 -31 5 -45 13 -47 25 -1
10 4 17 14 17 82 2 146 28 158 62 15 43 9 63 -33 122 -24 33 -42 61 -40 62 1
2 15 4 29 6 65 9 90 68 67 161 -9 37 -8 51 1 63 10 12 10 23 1 56 -8 25 -9 43
-3 47 9 6 20 32 27 70 7 36 37 146 45 166 5 11 14 36 20 56 15 52 67 129 86
129 14 0 15 7 9 48 -3 26 -13 60 -21 76 -19 38 -18 48 7 90 l21 36 -26 0 c-22
0 -25 3 -21 33 2 17 6 73 9 122 4 50 8 110 10 135 3 25 7 79 11 120 11 129 23
244 30 290 2 14 7 52 10 85 3 33 8 69 10 80 3 11 7 37 10 58 10 74 17 113 25
151 8 37 3 64 -21 112 -9 18 -4 36 30 103 22 45 37 80 33 77 -4 -2 -14 -1 -21
4 -11 6 -10 25 4 108 19 110 58 202 92 217 18 8 21 16 18 55 -6 72 -16 154
-20 160 -2 3 -6 25 -10 49 -3 24 -17 87 -31 139 -13 53 -22 98 -19 100 3 3 19
5 37 4 18 0 35 4 39 9 3 6 0 36 -8 67 -25 105 -27 169 -8 213 17 36 17 40 2
52 -15 11 -15 17 -1 72 9 33 17 67 19 75 2 8 20 85 39 170 20 85 38 163 40
173 3 13 -3 17 -28 17 l-32 0 2 65 2 65 -98 74 c-183 138 -367 226 -525 252
-55 9 -431 11 -489 2z m-628 -3820 c2 -9 -26 -57 -62 -106 -73 -99 -73 -103
-51 -217 7 -38 19 -98 25 -132 l12 -62 -70 -178 c-39 -98 -76 -200 -82 -228
-16 -71 -5 -152 34 -255 l33 -89 -29 -28 c-36 -33 -53 -66 -62 -113 -32 -178
-115 -507 -163 -645 -42 -123 -97 -222 -129 -237 -14 -7 -24 -20 -24 -33 0
-27 35 -65 61 -65 19 0 18 -2 -6 -49 l-25 -49 26 -117 c19 -88 23 -123 16
-143 -6 -15 -44 -108 -85 -208 l-75 -181 20 -45 c19 -45 19 -46 0 -85 -18 -39
-18 -41 0 -52 21 -13 23 -58 3 -84 -15 -21 -80 -33 -119 -23 -30 7 -55 52 -81
141 -22 79 -27 105 -18 104 42 -7 40 20 -18 257 l-40 162 26 38 c26 38 26 38
5 46 -12 4 -32 31 -47 64 -22 49 -24 61 -15 93 31 104 34 192 9 252 -14 33
-13 42 3 103 11 36 21 82 25 102 3 20 7 39 9 43 3 4 7 27 10 51 3 25 8 56 11
70 15 72 14 90 -4 90 -34 0 -32 29 4 66 55 54 82 134 91 268 5 69 5 69 63 125
106 103 180 262 246 531 9 36 18 79 21 96 3 18 43 94 89 170 164 270 284 500
285 546 0 28 73 34 78 6z m1253 -528 c1 -5 2 -21 2 -35 0 -40 -2 -43 -20 -41
-13 2 -18 12 -19 37 0 19 1 37 3 42 6 11 33 9 34 -3z m-1381 -890 c0 -16 -7
-20 -35 -20 -28 0 -35 4 -35 20 0 16 7 20 35 20 28 0 35 -4 35 -20z m1211
-480 c5 -56 2 -80 -15 -117 -13 -27 -27 -43 -38 -43 -22 0 -22 0 -3 36 22 43
19 51 -19 49 -46 -3 -53 3 -52 45 1 41 8 45 76 45 37 0 50 -4 51 -15z m-236
-1090 c0 -9 -12 -17 -30 -20 -43 -8 -65 -1 -65 22 0 17 6 19 48 16 34 -2 47
-7 47 -18z m-167 -92 c-2 -19 -9 -22 -43 -22 -28 0 -40 4 -41 14 -1 26 6 30
47 30 36 0 40 -2 37 -22z m-212 -553 c-1 -25 -2 -45 -3 -45 -13 0 -33 15 -33
26 0 21 -27 17 -44 -7 -18 -26 -52 -22 -48 6 7 38 45 63 97 64 30 1 31 0 31
-44z"/>
<path d="M4532 7345 c0 -16 2 -22 5 -12 2 9 2 23 0 30 -3 6 -5 -1 -5 -18z"/>
<path d="M7562 7286 c-25 -53 -143 -222 -176 -251 -34 -31 -96 -116 -96 -133
0 -16 7 -20 33 -20 52 0 55 -1 50 -22 -11 -41 -108 -1 -125 51 -3 10 -13 8
-40 -8 -42 -25 -117 -25 -165 0 -39 21 -43 21 -43 3 0 -7 -9 -16 -21 -19 -31
-8 -101 1 -115 15 -15 16 -35 88 -28 100 8 12 -3 10 -45 -10 -37 -18 -39 -18
-72 -1 -47 25 -49 24 -49 -25 0 -41 -3 -45 -52 -78 -52 -34 -85 -65 -111 -102
-13 -18 -15 -18 -56 3 -48 25 -73 24 -77 -1 -6 -45 -46 -136 -74 -173 -21 -27
22 -167 62 -200 16 -14 34 -25 39 -25 5 0 2 -16 -6 -36 -21 -52 -19 -57 20
-52 31 4 39 0 62 -31 45 -60 105 -120 124 -126 11 -4 19 -11 19 -17 0 -14 -63
-71 -98 -89 -15 -7 -38 -22 -52 -31 -14 -10 -40 -22 -57 -27 -28 -8 -33 -7
-34 7 -7 104 -27 159 -73 208 -45 46 -92 64 -171 64 l-50 0 -29 -78 c-15 -42
-34 -90 -42 -107 -7 -16 -25 -59 -39 -95 -47 -113 -115 -237 -151 -274 -25
-26 -44 -62 -68 -133 -63 -186 -114 -263 -175 -263 l-32 0 6 98 c4 53 8 113
10 132 2 19 6 80 10 135 4 55 9 111 11 125 1 14 -6 77 -17 140 -13 77 -17 116
-9 118 5 2 15 12 20 22 7 13 -6 52 -55 161 -63 141 -90 176 -102 131 -5 -21
-41 -30 -100 -24 -24 2 -31 8 -30 23 1 16 9 19 59 19 32 0 58 3 58 8 0 4 -8
20 -18 37 -18 29 -20 30 -100 30 -63 1 -82 -2 -82 -13 0 -8 9 -16 20 -19 27
-7 26 -48 -2 -67 -12 -9 -39 -16 -59 -16 l-37 0 4 55 c1 30 -1 55 -6 55 -5 0
-25 -8 -44 -17 -33 -15 -38 -15 -77 2 -38 18 -42 18 -50 2 -18 -31 -119 -66
-119 -41 0 8 5 14 10 14 6 0 10 7 10 15 0 21 64 79 110 100 46 21 48 27 20 55
-20 20 -20 22 -3 50 9 17 21 30 26 30 5 0 42 -27 82 -60 40 -33 83 -60 94 -60
11 0 50 7 88 16 87 20 94 22 118 29 14 4 23 0 30 -16 16 -36 32 -33 40 8 4 21
13 45 21 54 8 9 16 25 17 36 2 28 -85 200 -133 264 -59 79 -160 139 -160 95 0
-29 -36 -58 -77 -63 l-40 -5 -5 40 c-16 117 -119 216 -292 281 l-51 19 -30
-24 c-36 -29 -44 -30 -40 -6 4 27 -3 32 -33 21 -53 -18 -56 -34 -58 -283 -2
-217 -3 -230 -22 -245 -18 -15 -24 -34 -37 -131 -25 -185 -92 -557 -125 -699
l-22 -94 21 -91 c23 -98 61 -317 61 -353 0 -12 -7 -26 -14 -30 -30 -16 -76
-145 -121 -333 -19 -76 -21 -96 -10 -105 21 -17 23 -38 4 -79 -16 -36 -16 -41
-2 -52 23 -16 24 -98 2 -159 -10 -27 -15 -52 -10 -55 12 -7 37 -99 52 -191 12
-73 12 -77 -10 -100 -12 -13 -28 -45 -36 -72 -13 -45 -12 -55 12 -160 14 -62
30 -114 34 -115 5 -2 9 -19 9 -37 0 -19 11 -80 25 -137 30 -124 30 -128 5
-128 -11 0 -20 -3 -20 -8 0 -4 18 -59 40 -122 23 -63 43 -133 46 -155 20 -139
123 -226 333 -280 82 -22 84 -22 163 -5 74 17 80 17 85 2 15 -49 27 -71 56
-106 l32 -38 37 22 c34 20 39 20 67 6 34 -18 65 -21 56 -6 -9 14 7 12 48 -5
62 -26 77 -21 77 24 0 22 4 42 8 45 10 6 34 -8 31 -20 -1 -5 -1 -22 0 -38 l1
-29 108 6 c59 2 125 11 146 19 35 13 41 21 57 67 18 58 62 111 91 111 10 0 20
6 23 13 11 37 93 254 123 327 44 109 75 170 100 196 20 21 29 43 37 86 13 70
51 162 78 191 17 18 32 37 33 42 1 6 4 24 7 40 30 172 89 305 134 305 17 0 17
37 -2 90 -14 41 -14 43 9 71 14 16 34 55 46 86 28 73 80 244 80 261 0 23 190
517 298 777 83 198 179 393 208 423 16 16 57 7 79 -18 25 -28 22 -131 -5 -177
-22 -38 -20 -63 5 -63 11 0 15 -12 16 -52 2 -138 -4 -202 -26 -287 l-23 -92
25 -10 c23 -9 25 -13 20 -52 -3 -23 -8 -53 -11 -67 -41 -185 -42 -205 -12
-251 l26 -39 -24 0 c-30 0 -29 -19 4 -91 l22 -45 -25 -55 c-67 -149 -66 -143
-50 -180 19 -45 24 -116 26 -347 l2 -194 45 -16 c89 -33 88 -31 64 -104 -23
-67 -24 -61 10 -258 2 -14 5 -30 5 -36 1 -7 9 -14 19 -16 10 -3 18 -15 19 -28
5 -63 87 -220 150 -286 60 -63 116 -90 248 -119 206 -46 348 -92 397 -127 13
-9 35 -8 105 5 48 10 93 17 99 17 6 0 10 -17 9 -40 -1 -33 2 -40 17 -40 14 0
18 8 18 38 0 21 3 41 6 45 3 3 31 -4 62 -15 51 -19 62 -20 116 -9 98 20 224
76 287 126 47 37 97 113 104 157 4 24 9 50 10 59 2 9 20 42 41 75 142 222 231
564 188 727 -33 126 -90 218 -151 244 -30 12 -37 11 -74 -7 -144 -74 -266
-186 -316 -291 l-32 -65 -55 -2 -56 -1 0 217 c0 119 5 244 10 277 5 33 12 84
16 113 3 29 7 62 9 73 2 11 -2 19 -10 19 -12 0 -25 21 -25 41 0 5 9 9 20 9 19
0 20 5 15 98 -7 114 -14 175 -30 262 -8 40 -38 146 -45 161 -7 12 -3 19 15 27
22 10 25 18 25 62 l0 50 -45 0 -45 0 0 40 c0 44 9 48 50 25 36 -21 38 -19 34
28 -4 54 -14 163 -19 202 -2 17 -9 73 -16 125 -6 52 -13 104 -15 115 -2 10 -6
37 -9 60 -3 22 -8 47 -10 55 -2 8 -7 31 -10 50 -15 92 -58 205 -89 236 -38 38
-34 65 13 91 l29 17 -23 36 c-31 50 -73 133 -109 217 -28 66 -48 89 -232 276
-110 113 -215 226 -232 253 -27 40 -37 48 -66 50 -34 2 -36 -1 -64 -60z
m-2556 -536 c-1 -35 -1 -35 -41 -32 -22 2 -41 5 -43 7 -8 8 25 58 47 70 31 16
39 7 37 -45z m1619 -28 c0 -27 -5 -38 -17 -40 -15 -3 -18 4 -18 36 0 21 3 41
6 45 14 14 29 -6 29 -41z m-1745 -24 c0 -14 -8 -18 -40 -18 -34 0 -40 3 -40
20 0 18 6 20 40 18 31 -1 40 -6 40 -20z m255 -515 c0 -32 -4 -39 -22 -41 -21
-3 -23 1 -23 37 0 36 3 41 23 41 19 0 22 -5 22 -37z m-714 -1543 c7 -34 3
-112 -5 -118 -18 -11 -34 -11 -39 1 -3 10 -2 121 2 122 9 3 41 -1 42 -5z
m2909 -209 c8 -1 8 -81 1 -82 -3 0 -14 -2 -23 -4 -15 -3 -18 4 -18 45 0 41 3
48 18 45 9 -2 19 -4 22 -4z m-1040 -49 c0 -19 -45 -72 -61 -72 -17 0 -18 3 -8
23 18 34 37 54 54 54 8 0 15 -2 15 -5z m920 -131 c0 -21 -21 -29 -57 -23 -14
3 -23 12 -23 23 0 15 7 19 40 19 33 0 40 -3 40 -19z m0 -164 c0 -20 -5 -23
-39 -24 -34 -1 -38 2 -38 23 0 21 4 24 38 24 34 0 39 -3 39 -23z m-1210 -88
c0 -24 -4 -26 -40 -26 -34 0 -40 3 -40 22 0 29 2 30 44 30 32 0 36 -3 36 -26z
m1370 -282 c0 -6 -7 -15 -16 -21 -15 -11 -15 -15 0 -50 9 -21 16 -40 16 -42 0
-2 -27 -4 -60 -4 l-60 0 0 33 c0 37 23 75 52 86 28 10 68 9 68 -2z"/>
<path d="M3135 1076 c0 -29 5 -42 16 -44 22 -4 57 28 64 58 6 24 4 25 -37 26
l-44 0 1 -40z"/>
</g>
</svg>
