<?xml version="1.0" encoding="utf-8"?>
<!-- Generator: Adobe Illustrator 22.1.0, SVG Export Plug-In . SVG Version: 6.00 Build 0)  -->
<svg version="1.1" id="Layer_1" xmlns="http://www.w3.org/2000/svg" xmlns:xlink="http://www.w3.org/1999/xlink" x="0px" y="0px"
	 viewBox="0 0 228 86" style="enable-background:new 0 0 228 86;" xml:space="preserve">
<style type="text/css">
	.st0{fill:none;}
	.st1{enable-background:new    ;}
	.st2{fill:#FFFFFF;}
</style>
<rect x="1.7" y="26.5" class="st0" width="273.9" height="38.6"/>
<g class="st1">
	<path class="st2" d="M22.4,23.4c0,0.3,1.1,0.6,3.3,0.8l1.5,1.3c3.3,1.3,5,2.6,5,3.9c0.4,0.6,0.9,2.1,1.3,4.4
		C32.4,40.6,31.2,44,29.9,44c0,0.2-0.2,0.5-0.7,0.8h-0.3v-0.6h-0.2c-0.6,0.5-2,0.8-4.3,0.8h-1c-1.1-0.9-2.2-1.6-3.3-2.1
		c-1.7,2.3-3.2,3.4-4.3,3.4V46l-0.5,0.3l-1.3-0.5v0.5h-0.2c0-0.4-1.3-1.4-3.8-2.9c-0.5-1.2-0.9-1.8-1.2-1.8c0.7-4.3,1.2-6.5,1.5-6.5
		c0.2,0,1-0.6,2.3-1.9c0.3,0.2,0.6,0.3,1,0.3c0.2-0.5,0.7-0.8,1.5-0.8c0.1,0,0.4,0.1,0.7,0.3l1.5-0.3l5.3,1.6h0.5c0,0.3,0.3,1,1,2.1
		L23.6,39c0,1.6,0.7,2.4,2.1,2.4c0.6,0,1.3-1.1,2-3.4v-0.3l-0.3-1.3c0.5,0,0.8-0.4,0.8-1.1c-0.3-2.5-0.8-4.4-1.5-5.5
		c0.2,0,0.2-0.1,0.2-0.2c-3-1.9-5-2.9-5.8-2.9L20.6,27c-0.3-0.1-1-0.3-2.3-0.5c-4.4,0.8-7.4,2.1-8.8,3.9c-1.1,1.4-1.9,3-2.3,4.7
		l-0.5,0.2c0,0.2,0.1,0.3,0.3,0.3c-0.2,1.3-0.4,2.2-0.8,2.6l0.3,0.5C6.2,39.3,6,40,6,40.8v0.3l0.8,2.6c-0.2,0.3-0.3,0.6-0.3,0.8
		c2,2.6,3.3,3.9,4,3.9l-0.2,0.5c2,1.4,3.9,2.1,5.5,2.1v-0.3l0.5,0.3h0.3c2.9,0,4.3-0.3,4.3-1l1.2,0.2h0.5c1.3,0,2.3-0.6,3-1.8
		c0.5,0,2.2-0.4,5.3-1.3v0.2l0.5-0.2h1.3c1,0.8,1.5,1.4,1.5,1.8c0,1.1-0.8,2-2.3,2.7c0,0.5-0.2,0.7-0.5,0.7v-0.7
		c-0.5,0-2.1,0.9-4.8,2.6c-3.4,1.2-6.6,1.8-9.3,1.8h-0.7c-1.2,0-1.8-0.2-1.8-0.5l-0.5,0.3c-3.9-1.5-6.2-2.5-6.8-3.1
		c0.2,0,0.3-0.1,0.3-0.3H7.5v0.3c-2.1-1.1-3.8-3-5.3-5.8l0.2-0.5c-0.7,0-1.2-1.6-1.5-4.7c0-1.1,0.4-2.1,1.3-3.1l-0.5-1.3
		c0.5,0,0.8-0.5,1-1.4v-0.7c0.6-0.8,1.4-2.5,2.3-5.2c1.4-2.4,3.1-3.6,5-3.6c0.9-0.9,2.4-1.3,4.3-1.3c0-0.2,0.2-0.3,0.5-0.3
		c0,0.2,0.1,0.3,0.3,0.3v-0.6h1.3c0.5,0,1.2-0.3,2-0.8c1,0.2,1.7,0.3,2.3,0.3v-0.3l0.5,0.3L22.4,23.4z M13.8,42.1
		c1.1,0,2.7-1.5,4.8-4.5c0-0.3-0.3-0.5-0.8-0.7c0,0.2-0.1,0.3-0.2,0.3c0-0.5-0.2-0.8-0.5-0.8h-0.5c-0.2,0-0.3,0.1-0.3,0.3l-0.5-0.3
		c-1.3,0-2.4,1.3-3.3,3.9C13.4,40.9,13.8,41.6,13.8,42.1z M24.7,22.8c0.3,0.1,0.5,0.3,0.5,0.5h-0.5V22.8z"/>
	<path class="st2" d="M30,73.5h0.4v0.2H30V73.5z M37.6,35.5l1-0.2h1.5c0.8,0.5,1.3,0.8,1.3,1.1c-0.3,0.1-0.5,0.2-0.7,0.2v0.2h0.2
		c0.3-0.1,0.5-0.2,0.6-0.2c0.4,0.7,0.7,1,0.9,1.1l-0.2,1.1v1.3c0,1.2,0.2,2.1,0.6,2.6v0.8c0,0.2-0.1,0.3-0.2,0.3
		c0.4,1.2,0.7,1.8,0.9,1.9l-0.2,0.4V47c0,0.3,0.1,0.5,0.4,0.5l-0.2,0.4v0.7c0,0.6,0.1,1.2,0.4,1.7l-0.4,0.8c0.4,0,0.7,0.7,0.8,2
		c0,0.1-0.1,0.2-0.2,0.2l0.2,1.1v1.6l0.3,0.4c-0.2,0-0.3,0.1-0.3,0.2h0.3c-0.2,1-0.3,1.6-0.5,1.6c0.3,0.6,0.5,1.5,0.6,2.6h-0.2
		c0,0.1,0.1,0.2,0.2,0.2L44.5,62v0.4l0.2,0.4c-0.3,0.1-0.4,0.2-0.4,0.4h0.3l-0.3,0.5c0.1,0.3,0.2,0.4,0.4,0.4l-0.2,0.5l0.2,1.1h-0.4
		l0.3,0.4v0.5c0,0.2-0.1,0.2-0.3,0.2l0.3,0.4v0.5l-0.5,0.6v0.4h0.5v0.9c-0.4,0-0.7,0.2-0.7,0.5h0.7l-0.3,0.4c0,0.3,0.2,0.4,0.4,0.4
		c-0.3,0.5-0.4,0.8-0.4,1.1l-0.4-0.3V72c0.1,0.2,0.2,0.4,0.2,0.6v0.2h-0.2v-0.4c-0.3,0-0.4,0.1-0.4,0.4l0.4,0.2l-0.3,0.4l0.3,1.3
		l-0.4-0.2V75l-0.6-0.4c0,0.3-0.1,0.6-0.2,0.9c0.3,0,0.6,0.1,0.9,0.3v-0.5h0.2v0.6c-0.1,0-0.2,0.1-0.2,0.3h0.2
		c-0.1,0.3-0.2,0.5-0.2,0.7H43v-0.5l-0.6,0.5h-0.2c0-0.4-0.1-0.7-0.2-0.9h0.4v-0.4c-0.2,0-0.4,0.2-0.6,0.6l-1.1-0.4
		c0.2,0.5,0.6,0.8,1.3,0.8L41.8,77l0.2,0.4h-0.2l0.2,0.5c0,0.4-0.4,0.6-1.1,0.6l0.2,0.5c-0.6,0-0.8,0.4-0.8,1.1h-0.4l0.2-0.4h-0.5
		v0.2l0.3,0.4l-0.5,0.2c0-0.1-0.1-0.2-0.2-0.2c0,0.1-0.1,0.2-0.2,0.2v-0.8c-0.2,0-0.3-0.2-0.3-0.5h-0.2c-0.5,0-0.9,0.9-1.3,2.6h-0.4
		v-0.5l0.4-0.6c-0.4,0.3-0.8,0.4-1,0.4l0.2,0.4h-0.2l-0.7-0.4v0.2c0.3,0.1,0.4,0.2,0.4,0.5L35.7,82h-0.2l0.2-0.5
		c-0.6,0-1.1-0.3-1.7-0.8v-0.4l0.4,0.2l0.4-0.2c0,0.1,0.1,0.2,0.2,0.2V80h-0.4l-0.5,0.2c0-0.1-0.1-0.2-0.2-0.2v0.2
		c-0.7-0.6-1.2-0.9-1.5-0.9c0-0.2,0.1-0.2,0.3-0.2l-0.3-0.4v-0.2l0.3-0.4h-0.3c0,0.1-0.1,0.2-0.2,0.2l-0.2-0.4v-0.5l0.4,0.3h0.3
		c-0.7-0.7-1.1-1.5-1.1-2.4h0.2l0.4,0.2L32.1,75v-0.2h0.4c0-0.3-0.1-0.4-0.4-0.4c0,0.6-0.2,0.9-0.6,0.9v-1.1L31,74.4
		c-0.2-0.4-0.5-1.3-0.9-2.6c0.2-1,0.3-1.6,0.4-1.9l-0.4-1.5c0.2,0,0.4-0.3,0.7-0.9c0-0.2-0.1-0.2-0.3-0.2c0.2-1.6,0.4-2.6,0.7-3
		c-0.3,0-0.4-0.1-0.4-0.4c0.5,0,0.9-1.2,1.2-3.5h0.4l-0.2-0.4c0.3,0,0.5-0.1,0.5-0.4c0-0.2-0.1-0.2-0.3-0.2c1.6-3.3,2.6-5,3-5h0.6
		c-0.1-0.3-0.2-0.5-0.2-0.6l0.6,0.5v-0.2c-0.3,0-0.4-0.1-0.4-0.4c0-0.1,0.1-0.2,0.2-0.2l-0.2-0.4c0-0.4,0.1-0.8,0.4-1.3h-0.2
		c0,0.1-0.1,0.2-0.2,0.2v-0.9h0.4c-0.3-0.6-0.4-1.1-0.4-1.6c0.2,0,0.2-0.1,0.2-0.2c-0.2,0-0.5-1-0.9-3c0-0.1,0.1-0.2,0.2-0.2
		c-0.2-1.4-0.4-4.7-0.6-10c0.2,0,0.9-0.1,2.3-0.4C37.5,35.3,37.6,35.4,37.6,35.5z M30.9,69.8c0,0.2-0.1,0.4-0.3,0.6h0.3l0.2-0.4
		v-0.3H30.9z M31,72.6v0.9l0.4-0.2c-0.1-0.3-0.2-0.6-0.2-0.7H31z M31.3,68.3v0.4h0.2v-0.4H31.3z M31.7,67.6v0.4h0.2v-0.4H31.7z
		 M31.9,62.8c0.2,0,0.4-0.1,0.4-0.4v-0.2c-0.2,0.1-0.4,0.2-0.4,0.5V62.8z M32.3,66.1c0.2,0,0.4-0.2,0.7-0.6
		c-0.6,0.2-0.9,0.4-0.9,0.6H32.3z M32.8,73.1c-0.2-0.2-0.3-0.5-0.3-0.9c-0.3,0-0.4,0.1-0.4,0.4L32.8,73.1z M32.5,70.3v0.2H33v-0.2
		H32.5z M32.5,70.9v0.4H33v-0.4H32.5z M33,60.3v0.4h0.2v-0.4H33z M33.1,61.3c0,0.1-0.1,0.3-0.2,0.6l0.4,0.2v-0.9H33.1z M33,71.5V72
		h0.2v-0.5H33z M33,75.8v0.3l0.4,0.2v-0.2L33,75.8z M33.1,59c0.1,0.3,0.2,0.4,0.5,0.4l0.2-0.4H33.1z M33.1,62.4v0.3l0.5,0.2v-0.2
		L33.1,62.4z M33.1,65v0.5l0.5,0.2c-0.2-0.3-0.3-0.5-0.3-0.7H33.1z M33.1,66.6v0.9h0.5c-0.2-0.2-0.3-0.5-0.3-0.9H33.1z M33.1,70.6
		v0.5h0.2v-0.5H33.1z M33.3,76.8l-0.2,0.4c0.3-0.1,0.5-0.2,0.7-0.2v-0.2H33.3z M34.6,57.2c0.2,0,0.4,0.2,0.6,0.7h-0.4l0.2,1.1
		l-0.4,0.2c0.1,0.3,0.2,0.5,0.2,0.6l-0.2,1.1h0.2c-0.1,0.2-0.2,0.5-0.2,0.7l-0.5-0.2l0.3,0.4V62H34v0.4l0.4-0.2V65h-0.3v-0.6
		c-0.3,0-0.4,0.2-0.4,0.4c0.3,0,0.4,0.2,0.4,0.4v0.2l-0.6,1.1c0.3,0,0.4,0.2,0.4,0.4c-0.2,0.2-0.2,0.5-0.2,0.6
		c0.2,0.4,0.3,0.6,0.4,0.6c0,0.1-0.2,0.7-0.6,1.8c0.1,0,0.2,0.1,0.2,0.2h-0.5l0.5,1.3c-0.1,0.3-0.2,0.5-0.2,0.7
		c0.1,0,0.2,0.1,0.2,0.2h-0.2l0.2,0.4l-0.2,0.5c0.3,0,0.4,0.2,0.4,0.6l0.4-0.2h0.2v0.4h0.6c0.3-1.6,0.6-2.4,0.9-2.4l-0.2-0.4v-0.4
		c0.2,0,0.4-0.1,0.6-0.2c0,0.2,0.1,0.2,0.2,0.2c0-0.2,0.1-0.4,0.2-0.6v-0.2h-0.2c0,0.4-0.3,0.6-0.9,0.6c0.1-0.3,0.2-0.5,0.2-0.6
		l0.4,0.2v-0.5h-0.4c0-0.3,0.1-0.6,0.2-0.9c-0.2-0.3-0.2-0.5-0.2-0.6l0.4-0.9c-0.1-0.3-0.2-0.6-0.2-0.9h0.4l0.4,0.2
		c0-0.1,0.1-0.4,0.2-0.7l-0.4-0.2h-0.2v0.4h-0.2v-0.7h0.4v-0.4h-0.6c0.1-0.3,0.2-0.5,0.2-0.6h0.2V65h0.2v-0.6h-0.4v-0.5l0.4,0.2
		l-0.2-0.4l0.2-0.5c-0.3,0-0.4-0.1-0.4-0.4V62h0.4v-0.4h-0.4v-0.7c0-0.4,0.1-0.6,0.2-0.9c-0.2-0.6-0.4-1.1-0.7-1.5l0.7-0.9h-0.4
		v-1.3c0-0.1-0.1-0.2-0.2-0.2l0.2-0.5v-0.2c0-0.3-0.1-0.4-0.4-0.4C35.9,55.3,35.5,56,34.6,57.2z M33.3,79.1c0.1,0.3,0.2,0.5,0.5,0.5
		v-0.5H33.3z M34,57.6v0.3h0.4v-0.3H34z M34,78.9v0.2h0.4v-0.2H34z M34.2,56.5V57h0.3v-0.5H34.2z M34.2,60.3v0.4h0.3v-0.4H34.2z
		 M34.4,75c0,0.3,0.2,0.4,0.4,0.4h0.2c0-0.3-0.1-0.4-0.4-0.4H34.4z M34.8,77.4h0.4c0-0.2-0.2-0.4-0.6-0.6
		C34.8,77,34.8,77.2,34.8,77.4z M35.9,79.8l-0.7-1.1h-0.4c0,0.3,0.2,0.4,0.4,0.4l-0.2,0.5v0.2h0.2v-0.4c0.1,0,0.5,0.4,1.3,1.3
		l-0.2-0.4V80c0-0.3,0.2-0.4,0.4-0.4c0,0.1,0.1,0.2,0.2,0.2v-0.2c-0.1,0-0.2-0.1-0.2-0.2c0.6,0,0.8-0.2,0.8-0.6v-0.2
		c-0.8,0.4-1.3,0.8-1.3,1.3H35.9z M35.2,75.4v0.3l0.4,0.1v-0.1L35.2,75.4z M35.2,80c0.1,0.3,0.2,0.4,0.4,0.4V80H35.2z M35.5,74.1
		v0.2h0.4v-0.2H35.5z M35.9,73.7h0.4c0-0.3-0.1-0.4-0.4-0.4V73.7z M36.1,67.2h0.2v0.5h-0.2V67.2z M36.7,74.4v-0.4
		c-0.2,0-0.4,0.2-0.7,0.6C36.4,74.5,36.6,74.4,36.7,74.4z M36.1,76.1v0.2h0.4v-0.2H36.1z M36.1,77.9h0.4l0.2-0.5
		c-0.2,0.2-0.5,0.3-0.7,0.3V77.9z M41.5,18.6c0,0.3,0.1,0.5,0.3,0.5l0.8-0.5l2.1,1.9v0.2c0,0.8-0.4,1.3-1.1,1.6l0.3,0.4v0.2
		l-1.1-0.2h-0.2l-1.1,0.9c-2.2-0.1-3.3-0.3-3.3-0.7l0.2-0.4H38v0.4c-0.8,0-1.4-0.6-1.7-1.7c1.7-0.9,2.5-1.5,2.5-1.7
		c1.6-0.1,2.3-0.4,2.3-0.9H41.5z M36.3,39v0.2h0.4V39H36.3z M36.3,75v0.2c0,0.3,0.2,0.5,0.4,0.5V75H36.3z M36.3,77h0.2
		c0.2-0.1,0.5-0.2,0.7-0.2v-0.2h-0.2c-0.3,0.2-0.5,0.2-0.6,0.2V77z M36.9,55.7v-0.6c-0.3,0-0.4,0.2-0.4,0.4L36.9,55.7z M36.5,71.7
		h0.4c0-0.3-0.1-0.4-0.4-0.4V71.7z M36.9,56.3c0,0.1-0.1,0.3-0.2,0.7h0.2l0.2-0.5v-0.2H36.9z M36.9,58.8l-0.2,0.4h0.2l0.2-0.4H36.9z
		 M37.3,67.6v0.9l-0.4-0.2h-0.2v0.2c0.3,0,0.4,0.1,0.4,0.4h0.2l0.2-0.9v-0.4H37.3z M37.2,68.1v-0.4c-0.3,0-0.4,0.2-0.4,0.4H37.2z
		 M36.7,68.9v0.6h0.2v-0.6H36.7z M36.7,72.2c0.1,0.2,0.2,0.5,0.2,0.9h0.2v-0.6L36.7,72.2z M36.9,53.7v1.1h0.2v-1.1H36.9z M36.9,74.1
		c0.3-0.1,0.5-0.2,0.6-0.2c0-0.3-0.1-0.4-0.4-0.4C37.2,73.6,37.1,73.9,36.9,74.1z M36.9,80v0.2h0.4V80H36.9z M37.2,59.8V60h0.4v-0.2
		H37.2z M37.2,65.5h0.4c0-0.3-0.1-0.5-0.4-0.5V65.5z M37.2,74.8v0.5h0.2v-0.5H37.2z M37.2,78h0.2v-0.2c0.6,0.3,1,0.4,1.3,0.4
		c0-0.3-0.4-0.5-1.3-0.6L37.2,78z M37.6,56.5L37.3,57v0.2h0.2c0-0.2,0.1-0.4,0.2-0.7H37.6z M37.3,64.4h0.4c0-0.3-0.1-0.5-0.4-0.5
		V64.4z M37.3,69.2v0.6h0.2v-0.6H37.3z M37.3,76.3v0.2h0.4v-0.2H37.3z M38,66.3v-0.7c-0.3,0-0.4,0.2-0.4,0.4L38,66.3z M37.6,74.6V75
		h0.2v-0.4H37.6z M38,47.5l-0.2,0.4H38l0.3-0.4H38z M37.8,55.9v0.2h0.6v-0.2H37.8z M38,59.4l-0.2,0.4c0.1,0,0.2,0.1,0.2,0.2
		c-0.1,0-0.2,0.1-0.2,0.2H38l0.3-0.4H38l0.3-0.4c0-0.3-0.2-0.4-0.5-0.4L38,59.4z M38.6,64.6v-0.7c-0.2,0-0.5,0.3-0.8,0.9
		C38,64.7,38.3,64.6,38.6,64.6z M38,67.4c0,0.2-0.1,0.4-0.2,0.6c0.4,0,0.6,0.1,0.6,0.4H38v0.2h0.4c0.1-0.3,0.2-0.5,0.2-0.9l0.5,0.2
		l0.2-0.4c-0.2,0-0.4-0.1-0.7-0.2v0.4h-0.4v-0.4H38z M38,58.1h0.4c0-0.3-0.1-0.5-0.4-0.5V58.1z M38,62.2l0.6,0.5h0.2v-0.3
		c-0.2,0-0.5-0.1-0.8-0.4V62.2z M38.4,68.9c0,0.2-0.1,0.5-0.4,0.9h0.4c0-0.2,0.1-0.4,0.2-0.6v-0.3H38.4z M38,79.8h0.4
		c0,0.3-0.1,0.4-0.4,0.4V79.8z M38.2,50.5v0.4h0.2v-0.4H38.2z M38.2,54.8v0.9h0.2v-0.9H38.2z M38.2,61.3v0.2h0.4v-0.2H38.2z
		 M38.2,66.8c0,0.3,0.2,0.4,0.4,0.4V67l-0.2-0.4c0.1-0.3,0.2-0.5,0.2-0.6c-0.2,0.1-0.4,0.2-0.4,0.4V66.8z M38.2,70.6v0.5h0.2v-0.5
		H38.2z M38.2,77.2h0.2c0-0.1,0.1-0.2,0.2-0.2c0,0.1,0.1,0.2,0.2,0.2V77c0-0.3-0.1-0.4-0.4-0.4C38.4,76.7,38.3,76.9,38.2,77.2z
		 M38.4,63.1v0.5h0.2v-0.5H38.4z M38.4,64.8v0.4h0.2v-0.4H38.4z M39.4,69.2c0,0.3-0.3,0.6-0.9,1.1l0.5-0.2h0.4l-0.9,1.1l0.5-0.2h0.2
		v0.4h0.2v-0.4h-0.2l0.7-1.1h-0.5l0.2-0.4v-0.1H39.4z M38.6,73.7v0.4h0.2v-0.4H38.6z M38.8,59.6h0.5c0-0.3-0.2-0.4-0.5-0.4V59.6z
		 M39.1,65.7l-0.3,0.9v0.2h0.3l0.2-0.9v-0.2H39.1z M38.8,75.8v0.5l0.7,0.5v-0.5c-0.3,0-0.4-0.2-0.4-0.5H38.8z M39.2,64.4l-0.2,0.4
		V65h0.2c0-0.2,0.1-0.6,0.4-1.1h-0.2c-0.3,0-0.4,0.2-0.4,0.5H39.2z M40.1,65c0.1,0,0.2,0.1,0.2,0.2c-0.3,0-0.7,0.7-1.3,2.2h0.4v-0.9
		h0.5v0.2l-0.3,0.4v0.2h0.3l0.2-0.9h-0.2c0-0.3,0.3-0.9,0.8-1.6c-0.1,0-0.3-0.1-0.6-0.2V65z M39.2,47.3v0.4h0.2v-0.4H39.2z
		 M39.2,54.2c0.1,0.3,0.2,0.5,0.2,0.6h0.2v-0.4L39.2,54.2z M40.1,69.8h0.2v-0.4c0-0.4-0.2-0.6-0.7-0.6v-0.7l0.5,0.2v-0.6h-0.2
		c-0.2,0-0.4,0.3-0.7,0.9C39.8,68.7,40.1,69.2,40.1,69.8z M39.4,62.7v0.4h0.2v-0.4H39.4z M39.4,65.2v0.4h0.2v-0.4H39.4z M39.9,71.7
		v-0.4c-0.3,0-0.5,0.2-0.5,0.4H39.9z M39.4,78.9v0.2h0.5v-0.2H39.4z M39.6,72.8c0.1,0.3,0.2,0.5,0.5,0.5v-0.2c0-0.3-0.2-0.5-0.5-0.5
		V72.8z M39.6,76.3h0.5l0.2-0.5c-0.2,0.2-0.5,0.3-0.7,0.3V76.3z M39.9,73.5v0.4h0.2v-0.4H39.9z M40.1,77.2l-0.2,0.5
		c0,0.3,0.1,0.4,0.4,0.4l-0.2-0.4l0.2-0.5H40.1z M40.3,62.2l-0.2,0.5h0.2l0.2-0.5H40.3z M40.1,63.3h0.4c0-0.3-0.1-0.4-0.4-0.4V63.3z
		 M40.1,70.3v0.4c0.1,0,0.2,0.1,0.2,0.2c-0.1,0-0.2,0.1-0.2,0.2h0.2c0.1,0,0.2-0.1,0.2-0.2l0.5,0.2c0.3,0,0.4-0.2,0.4-0.5h-0.2
		c0,0.2-0.1,0.2-0.2,0.2v-0.4l-0.5,0.2h-0.2v-0.4H40.1z M40.3,63.6v0.2h0.6v-0.2H40.3z M40.3,64.1v0.5h0.2v-0.5H40.3z M40.5,67
		c0.2,0.2,0.2,0.5,0.2,0.6c-0.2,0.3-0.2,0.5-0.2,0.6h0.5l0.2-0.9L40.5,67z M40.5,70.3c0.3,0,0.5-0.2,0.5-0.5v-0.2
		c-0.3,0-0.5,0.2-0.5,0.5V70.3z M40.5,71.3V72c0.3,0,0.5-0.2,0.5-0.5L40.5,71.3z M40.5,75.2v0.2h0.5v-0.2H40.5z M40.5,77.2v0.2h0.5
		v-0.2H40.5z M40.7,74.6V75h0.2v-0.4H40.7z M40.9,63.1v0.2l0.4,0.3v-0.3L40.9,63.1z M41.1,65.9l-0.2,0.9l0.6,0.4V67
		c-0.3,0-0.4-0.1-0.4-0.4l0.2-0.5v-0.2H41.1z M41.4,68.1l0.4,0.7c-0.2,0-0.3,0.1-0.3,0.2l-0.4-0.2h-0.2c0,0.2,0.2,0.4,0.6,0.6
		c0.3,0,0.5-0.4,0.7-1.3l-0.4,0.2c0-0.3-0.1-0.4-0.4-0.4V68.1z M41.5,65.7V65c-0.3,0.1-0.4,0.2-0.4,0.5L41.5,65.7z M41.4,71.1
		c0,0.2-0.1,0.4-0.2,0.6h0.2l0.2-0.4v-0.2H41.4z M41.1,77v0.2h0.4V77H41.1z M41.4,58.1v0.4h0.2v-0.4H41.4z M41.4,70.3
		c0.1,0.3,0.2,0.4,0.4,0.4H42v-0.4H41.4z M41.5,72v0.2H42V72H41.5z M42,75v-0.4c-0.3,0-0.5,0.2-0.5,0.4H42z M41.8,71.3v0.4h0.6v-0.4
		H41.8z M42,69.8c0.3,0,0.7,0.2,1.1,0.5l0.2-0.5v-0.2l-0.4,0.2l-0.2-0.4c-0.2,0.2-0.4,0.2-0.6,0.2V69.8z M42.4,66.8l-0.2,0.4v0.2
		h0.2c0-0.3,0.1-0.4,0.4-0.4v-0.2H42.4z M42.2,67.6v0.2h0.4v-0.2H42.2z M42.2,73.3v0.4h0.2v-0.4H42.2z M42.2,74.6v0.2h0.4v-0.2H42.2
		z M42.4,64.8v0.4h0.2v-0.4H42.4z M42.8,63.8l-0.2,0.4c0,0.3,0.2,0.5,0.5,0.5l-0.2-0.5l0.2-0.4H42.8z M43,66.8
		c0,0.3-0.2,0.4-0.5,0.4v0.2H43l0.2-0.4v-0.2H43z M42.6,70.4v0.4h0.2v-0.4H42.6z M42.6,72v0.2H43V72H42.6z M42.6,73.7v0.7
		c0.3-0.2,0.5-0.2,0.7-0.2c0-0.3-0.1-0.4-0.4-0.4H42.6z M43,68.9l-0.2,0.4H43l0.2-0.4H43z M43.4,67.4v0.4L43,67.6v0.2
		c0.1,0.3,0.2,0.5,0.2,0.6h0.2c0-0.3,0.1-0.4,0.4-0.4v-0.6H43.4z M43.2,71.1L43,71.5h0.2l0.2-0.4H43.2z M43.2,64.6V65h0.2v-0.4H43.2
		z M43.2,65.7v0.4h0.2v-0.4H43.2z M43.4,69.2c0.1,0.3,0.2,0.4,0.4,0.4v-0.4H43.4z M43.6,55.7v0.6h0.3v-0.6H43.6z M43.6,66.1v0.5
		c0.3,0,0.5-0.2,0.5-0.5H43.6z"/>
	<path class="st2" d="M48.3,30.3V31h0.2v-0.6h1.1c0.1,0,0.2,0.1,0.2,0.2c0.2,0,0.2-0.1,0.2-0.2c2.7,0.5,4.4,1,5,1.3
		c0.2-0.2,0.4-0.2,0.6-0.2c0,0.3,0.2,0.4,0.6,0.4v0.5c0,0.1-0.1,0.2-0.2,0.2c0,0.8,1,1.4,2.9,1.8c0,0.1,0.1,0.2,0.2,0.2
		c0.1,0,0.2-0.1,0.2-0.2l1.1,0.6l-0.2-0.4v-0.2h0.2l0.6,0.4c0.5-0.3,0.9-0.4,1.3-0.4c0,0.6,0.5,1.1,1.5,1.5l0.4-0.2
		c0,0.3,0.2,0.4,0.7,0.4v1.5c0.4,0.5,0.7,1,0.7,1.5v0.4c0,0.3-0.1,0.6-0.3,0.9c0.2,0.3,0.3,0.5,0.3,0.9v0.7l-0.5,0.6v0.2
		c0,0.2,0.1,0.2,0.2,0.2c-0.4,2.6-1.1,4.3-2.1,5.2c0,0.9-1,2.4-3.1,4.4c-0.4,0.5-1.2,1-2.5,1.7c0-0.1-0.1-0.2-0.2-0.2l0.2,0.4v0.2
		c-2.2,0.7-3.4,1.1-3.4,1.3c-3.3,0-5.3-0.9-6.1-2.6c-0.3,0-0.8-0.7-1.5-2.2l0.2-0.4v-0.2c-0.3,0-0.7-0.9-1.1-2.6
		c0.2,0,0.2-0.1,0.2-0.2h-0.4c0-1.2,0.3-1.7,0.8-1.7v-0.2c-0.2,0-0.4-0.1-0.6-0.3c0,0.3-0.2,0.5-0.5,0.5l-0.2-1.1
		c0-0.4,0.1-0.6,0.2-0.9c-0.1-0.7-0.3-1.1-0.4-1.1c0.1-1.3,0.3-2.4,0.6-3.2h-0.3c0.2-0.2,0.3-0.8,0.3-2l0.4,0.2h0.1l-0.4-1.1
		c0.3,0,0.6-0.8,1.1-2.4h0.2c0,0.1,0.1,0.2,0.2,0.2v-0.4h-0.4c0-0.3,0.2-0.5,0.4-0.5c0,0.2,0.1,0.3,0.2,0.3v-0.5h-0.4v-1.3l0.4,0.2
		v-0.2c0-0.3-0.1-0.5-0.4-0.5c0.6-0.8,0.9-1.3,0.9-1.5H48.3z M45.6,40.7l-0.3,1.3h0.5c0-0.5,0.1-0.9,0.2-1.1L45.6,40.7z M45.8,38.3
		v0.5H46v-0.5H45.8z M53.6,45.3l-0.2,1.5c0.3,2.7,0.6,4.1,1,4.1c1.2-0.2,2.5-1.5,3.8-4.1c0-0.4-1.3-0.7-4-1.1c0-0.3-0.1-0.4-0.4-0.4
		H53.6z M56.6,40.7c0,0.4-0.1,0.6-0.3,0.9c0.3,0,0.4,0.2,0.4,0.4l-0.2,0.4c0.7,0.6,1.3,0.9,1.9,0.9h0.4c0-0.1,0.1-0.3,0.2-0.6
		c-0.4,0-0.7-0.4-0.8-1.1c-0.3-0.6-0.5-0.9-0.7-0.9H56.6z M64.7,41.1v0.2h0.4v-0.2H64.7z"/>
	<path class="st2" d="M70.9,32.1c0.1,0,0.2-0.1,0.2-0.2c2.9,1,4.6,1.6,4.9,1.8l0.4-0.3h0.2c0,0.3,0.2,0.5,0.5,0.5l-0.5,1.2
		c0.2,0,0.2,0.1,0.2,0.2c-0.4,0.5-1.5,1.3-3.2,2.2c-0.3,0.6-0.6,0.9-1,0.9v0.2c0,0.1,0.1,0.2,0.2,0.2c-0.8,1.9-1.4,2.8-1.7,2.8v0.5
		l0.5-0.2v0.4c0.2,0,1.9-0.6,5-1.8h1.3c0.1,0,0.2,0.1,0.2,0.2l0.4-0.2c1.6,0.6,2.3,1.4,2.3,2.4H81l-0.2,0.5v0.2
		c0.5,0,0.8,0.6,1.1,1.7H82l-0.2,1.1v0.2c0,0.2,0.1,0.2,0.2,0.2l-1.9,3.4c0,0.8-0.9,2.1-2.7,3.9L77,54.1l0.2,0.4
		c-0.1,0.6-0.5,1.1-1.3,1.5c-0.7,0.5-1.1,0.9-1.1,1.3c-1.5,1.1-2.3,1.8-2.3,2.1h-0.4l-1.1-0.2v0.4c0.4,0,0.7,0.1,0.7,0.4h-0.2
		l-0.5-0.2v0.4h-0.4v-1.1h-0.2c0,0.9-0.1,1.3-0.2,1.3c-0.9,0.7-1.7,1.1-2.5,1.3c0-0.3-0.2-0.4-0.5-0.4v0.4H65
		c-0.3,0-0.4-0.1-0.4-0.4c0.2-0.3,0.2-0.5,0.2-0.9l-0.4-0.2l0.2-1.5v-0.2L64.2,58c2.4-2,3.6-3.2,3.6-3.4l0.4,0.2h0.3v-0.2h-0.5
		c1.5-2.1,2.4-3.1,2.8-3.1c2.6-3.1,4-4.6,4-4.7c0-0.3,0.5-0.9,1.5-1.9c0,0,0.1-0.5,0.4-1.3c-0.7,0.3-1.2,0.6-1.3,1.1l-0.4-0.2h-0.2
		v0.2h0.5v0.2l-1.9,0.6c0-0.3-0.1-0.5-0.4-0.5v0.3c0.3,0,0.4,0.2,0.4,0.4l-0.4,0.3h-0.2v-0.5h-0.4c0,0.1-0.1,0.3-0.2,0.6
		c-1,0-2.7-0.8-5.1-2.4c0.1,0,0.2-0.1,0.2-0.2c-0.3,0-0.6-0.2-0.9-0.5l0.3-0.4v-0.4H66V41l-0.2-0.4h0.4c0-0.1-0.1-0.4-0.2-0.6
		l0.2-1.3V38c0.3,0,0.6-0.4,0.7-1.3c0.8-0.6,1.2-1.2,1.2-1.7l0.5,0.1c0.2,0,0.5-0.6,0.8-1.9h0.2v0.7h0.2c0-0.5,0.2-0.7,0.6-0.7V33
		H70c0,0.1-0.1,0.2-0.2,0.2l-0.2-0.4c0.2,0,0.6-0.3,1.3-0.9V32.1z M67,59.4v0.4h0.2v-0.4H67z M67.6,38.1v0.7h0.3v-0.7H67.6z
		 M68.3,58.3v0.4h0.2v-0.4H68.3z M68.3,59.6v0.2h0.4v-0.2H68.3z M68.9,58.3v0.2h0.4v-0.2H68.9z M69.1,35.7V36h0.7v-0.3H69.1z
		 M69.5,57.2v0.2h0.5v-0.2H69.5z M69.7,58.1h0.6v-0.5c-0.3,0.2-0.5,0.3-0.6,0.3V58.1z M69.9,32.9h0.4c0-0.3-0.1-0.4-0.4-0.4V32.9z
		 M71.2,43.8V44h0.4v-0.2H71.2z M71.2,53.1v0.4h0.4v-0.4H71.2z M71.4,57v0.4h0.2V57H71.4z M73.3,56.5V57h0.2v-0.5H73.3z M74.1,54.8
		h1.1v-0.4c-0.2,0.2-0.6,0.2-1.1,0.2V54.8z"/>
	<path class="st2" d="M93.5,30c0.6-0.2,1-0.2,1.5-0.2c0.7,0.5,1.2,1.1,1.4,1.6c0.8,0,1.5,0.4,1.9,1.3V33c0,0.3-0.1,0.6-0.2,0.9
		c0.3,0.9,0.4,1.5,0.4,1.7c-1,1.6-2,3.5-3,5.7c-1.6,2.4-3.5,3.6-5.6,3.6l-0.4,0.7V46c0,0.8,0.1,2,0.2,3.7c3.1-1.3,5.4-3.3,6.7-5.9
		h0.9v0.9c0,0.2,0.1,0.9,0.4,2.2c-0.4,0.2-1.1,1.5-2.3,3.9c-0.3,0.9-0.6,1.4-0.8,1.5l0.2,0.4v0.4c-0.6,0-1.1,0.4-1.5,1.1
		c-0.3,0-0.8,0.4-1.7,1.1c-2.1-0.4-3.2-0.9-3.2-1.6c-0.4,0-1.7-0.5-3.8-1.5c-0.5,0-1.1-0.4-1.9-1.3c-0.8-1.7-1.2-2.8-1.2-3h0.2
		l-0.2-0.4v-1.3c0-0.5-0.1-0.8-0.2-1.1c0-3.5,1.4-7.3,4.2-11.3c2.1-2.8,4.2-4.2,6.3-4.2C92.8,29.9,93.4,30,93.5,30z M90.7,41
		c0.4,0,1.2-0.9,2.3-2.6c0.3,0,0.5-0.5,0.6-1.5c-1.4,0-2.4,1.1-2.9,3.3V41z"/>
	<path class="st2" d="M106.4,25.1h2.3c0,0.2,0.2,0.5,0.7,0.9h-0.3c0.2,0.8,0.6,1.4,1.3,1.5c0.3,0.6,0.6,0.9,1.1,0.9
		c0,0.1-0.1,0.2-0.2,0.2c0.1,0.8,0.5,1.7,1,2.8c0,0.2-0.1,0.2-0.2,0.2l0.6,1.1c-0.2,0.9-0.5,1.4-0.9,1.4v0.2h0.5
		c0,0.7-0.2,1.1-0.5,1.1l0.3,0.4v0.5l-0.4-0.2H111v0.8l0.8-0.6v0.2c0,0.1,0,0.2-0.1,0.2l0.1,0.4c-0.2,0.5-0.3,0.8-0.6,0.8l0.2,0.5
		c0,0.3-0.2,0.5-0.7,0.6l0.2,0.4c0,0.6-0.4,1.2-1.1,1.7c0,0.7-0.3,1.1-1,1.1l0.2,0.5c-0.5,0.2-1.1,1.2-1.9,2.8
		c0,0.2,0.1,0.3,0.2,0.3c0,0.1-0.1,0.3-0.2,0.7c0.2,0.8,0.2,1.4,0.2,1.7h-0.2l0.2,0.5c0,0.7-0.1,1.1-0.4,1.1l0.2,0.4v0.7
		c0,0.1-0.1,0.2-0.2,0.2l0.4,0.9c0,0.4-0.2,0.6-0.7,0.6c0.3,0.3,0.4,0.6,0.4,0.9l-0.2,0.4c0,0.2,0.1,0.2,0.2,0.2
		c-0.1,1.3-0.3,2.4-0.6,3.2c0.3,0,0.4,0.2,0.4,0.4v0.5l-0.4,0.6h0.4c0,1.3-0.2,1.9-0.6,1.9v0.2h0.4v0.2c0,0.4-0.1,0.8-0.4,1.3
		c0.1,0.3,0.2,0.6,0.2,0.9v0.3c-0.4,0-0.6,0.1-0.6,0.4l0.5,0.7v0.2h-0.5v0.4c0.4,0,0.6,0.1,0.6,0.2c0,0.7-0.1,1.1-0.4,1.1l0.2,0.4
		l-0.7,0.9v0.2h0.2v-0.4h0.2l0.2,1.1c-0.2,1.2-0.2,2-0.2,2.1c0.2,0,0.2,0.1,0.2,0.2l-0.5,0.2l0.2,0.4c0,0.2-0.1,0.3-0.2,0.3l0.2,0.4
		v0.6c0,0.3-0.1,0.4-0.4,0.4l0.2,0.4v0.8h-0.2v-0.4h-0.4c0,0.2,0.3,0.5,0.9,0.9c-0.2,0.2-0.2,0.4-0.2,0.6c0.2,0,0.2,0.1,0.2,0.3
		l-0.4,0.2l0.2,1.1c0,0.3-0.2,0.5-0.5,0.5c0-0.1-0.1-0.2-0.2-0.2l-0.2,0.4c0.9,0,1.3,0.5,1.3,1.6l-0.2,0.4l1.5,3.3h0.2l-0.2,0.4
		c0,0.3,0.1,0.7,0.4,1.3c-0.4,0-0.6,0.1-0.6,0.4l-0.4-0.2c-1.2,0.4-1.9,0.7-2.3,1.1c0-0.2-0.5-0.5-1.5-0.9H103
		c0,0.3-0.1,0.4-0.2,0.4c-1.8-0.4-2.7-1.2-2.7-2.4v-0.2h0.4c0-0.3-0.1-0.5-0.4-0.5v0.5h-0.5c0-0.7-0.1-1.3-0.4-1.6
		c0.1,0,0.2-0.1,0.2-0.3c-0.1,0-0.2-0.1-0.2-0.2h0.2c-0.2-0.6-0.4-1.4-0.6-2.6c0.2-0.2,0.3-0.6,0.3-1.1h-0.5v-1.1l0.2-0.4h-0.4v-0.3
		c0-0.1,0.1-0.1,0.2-0.1c-0.3-0.5-0.5-1.1-0.5-1.8c0-0.2,0.1-0.2,0.3-0.2l-0.3-0.4v-2.2c0-0.2,0.1-0.2,0.3-0.2l-0.3-0.4v-0.6
		l0.3-0.4c-0.2,0-0.3,0-0.3-0.1h0.5l-0.2-0.9c0.1-2.2,0.2-3.6,0.2-4.4c0.1,0,0.2-0.1,0.2-0.2h-0.2l0.5-1.4c-0.2-0.2-0.3-0.5-0.3-0.8
		l0.3-0.4v-0.7h0.2V60c0-0.3-0.1-0.6-0.2-0.9c0.2-0.4,0.4-1.1,0.6-2.1l-0.2-1.1c0.1-1.3,0.2-1.9,0.4-1.9l-0.2-0.5v-0.2
		c0-0.1,0.1-0.2,0.2-0.2l-0.2-0.4c0-0.1,0.1-0.2,0.2-0.2c0-0.1-0.1-0.2-0.2-0.2l0.5-2.6h-0.2c0.2-0.3,0.2-0.6,0.2-0.7l-0.7-0.9
		L99,48.3h-0.5l-0.5-0.2c0,0.4-0.1,0.6-0.4,0.6l-0.4-0.1c-0.4,0-0.6,0.2-0.6,0.6h-1.1c-0.1,0-0.2-0.1-0.2-0.2
		c-0.2,0-0.2,0.1-0.2,0.2l-1.1-0.2l-0.4,0.2c-0.5-0.3-0.8-0.4-1-0.4c0,0.2-0.1,0.2-0.3,0.2l-0.2-0.4c0.1-0.6,0.3-0.9,0.6-0.9
		l-0.2-0.4c0.2,0,0.6-0.2,1.2-0.7c3.8-0.7,6-1.3,6.5-1.7l-0.2-0.5v-0.2h0.4v-0.4c0-0.2-0.1-0.3-0.2-0.3l0.2-0.4
		c0-0.4-0.1-0.7-0.2-0.9l0.5-0.9l-0.2-0.4l0.2-1.1h-0.2l0.4-1.6l-0.2-0.5l0.2-2.1c-0.1-0.3-0.2-0.5-0.2-0.6c0.3,0,0.7-0.7,1-2.2h0.2
		l-0.2-0.4c0.3-0.6,0.4-1,0.4-1.3h-0.2c1-2.8,2-4.4,2.9-4.8c0-0.2,0.4-0.6,1.3-1.1V25.1z M98.8,67.2v0.2l0.6,0.4v-0.2L98.8,67.2z
		 M99.8,60.3v0.4h0.2v-0.4H99.8z M99.8,61.1v0.2h0.4v-0.2H99.8z M99.8,72.4v0.1h0.4v-0.1H99.8z M100.7,82.4V82
		c-0.2,0-0.4,0.2-0.6,0.7C100.3,82.5,100.5,82.4,100.7,82.4z M103.4,62.8v0.7c0.3,0,0.5-0.2,0.5-0.5v-0.2H103.4z M104.9,76.8V77h0.4
		v-0.2H104.9z M107.4,36.8c0.1,0.2,0.2,0.5,0.2,0.9h0.2c0.5-0.8,0.8-1.8,1.1-2.8h-0.2l0.2-0.4v-0.9c0-0.3-0.1-0.4-0.4-0.4
		C107.9,34.3,107.6,35.5,107.4,36.8z"/>
	<path class="st2" d="M112.3,35.1c1,0.3,2,0.5,2.9,0.5v-0.5h0.4c0.1,0,0.2,0.1,0.2,0.2l0.4-0.2c0.9,0,1.3,0.6,1.3,1.8
		c-0.2,0-0.3,0.1-0.3,0.2c0.6,0,0.8,0.4,0.8,1.3h0.3V38l0.4,0.3c-0.2,0.7-0.6,1.1-1,1.1v0.2c0,1.7-0.2,2.6-0.5,2.6
		c0,0.1,0.1,0.2,0.3,0.2l-0.3,1.1v2.1h0.3c0.5-0.3,2-2.3,4.4-6.1c1.1-0.9,1.6-1.7,1.6-2.2c1.6-0.3,2.3-0.6,2.3-0.8l0.4,0.2
		c2.7,0,4,0.3,4,0.9v3.2c0,0.2-0.1,0.2-0.3,0.2c0.2,0.3,0.3,0.5,0.3,0.6c-0.2,0.3-0.3,0.5-0.3,0.7h0.3l-0.3,0.4l0.3,0.4
		c0,0.1-0.3,1.3-0.9,3.5c0,0.2,0.1,0.4,0.2,0.6c-0.2,1.4-0.4,2.4-0.7,2.9c0.2,0,0.3,0.7,0.3,1.9h-0.7v0.2c0.1,0,0.3,0.1,0.7,0.2
		l-0.7,1.3l0.2,0.4l-0.2,0.4l0.2,0.9c-0.2,0.4-0.3,0.6-0.5,0.6c0,0.2,0.1,0.3,0.2,0.3c0,0.5-0.2,1-0.6,1.7c0,0.2,0.1,0.3,0.2,0.3
		c-0.1,1.3-0.3,1.9-0.4,1.9c0.3,1.7,0.6,2.6,0.8,2.6h0.4c0.3,0,1.6-1.4,4-4.1h0.6c0.3,0,0.4,0.1,0.4,0.4c0,2.7-0.4,4.4-1.3,5
		c0-0.1-0.1-0.2-0.2-0.2l0.2,0.4v0.2l-0.4-0.2c-0.4,0.4-0.9,1-1.5,2h-0.2c-1.4,0.1-2.1,0.2-2.1,0.4c-1.4,0-3-0.5-5-1.5l0.3-0.4
		c-0.6,0-0.8-0.2-0.8-0.5c-1.1-3-1.7-4.5-1.7-4.7l0.2-0.4c-0.1-0.6-0.2-0.9-0.4-0.9l0.2-0.5v-1.3c0-0.1-0.1-0.2-0.2-0.2l0.2-0.5
		v-1.3h0.4l-0.2-0.4V53l1.1-5.2c-0.2,0-0.2-0.1-0.2-0.2c0.2,0,0.2-0.1,0.2-0.2H122c-0.4,0.3-1.2,1.8-2.5,4.4c-0.2,0-0.7,0.6-1.5,1.9
		h-0.6v0.2h0.5v0.2h-0.7l-0.6-0.4h-0.5v0.4c-0.1,0-0.2-0.1-0.2-0.2l-0.4,0.2H115c-0.1,0-0.2-0.1-0.2-0.2l-0.4,0.2h-0.2
		c-0.7,0-1.6-0.3-2.9-0.9l0.2-0.4v-0.3h-0.2c-0.2,0.2-0.5,0.3-0.7,0.3c-0.2-0.3-0.6-1-1.1-2.2c0.3,0,0.4-0.1,0.4-0.4h-0.4v-0.7
		c0.3,0,0.6-0.3,0.7-0.9c-0.3,0-0.5-0.3-0.7-0.8h0.4c-0.1-0.3-0.2-0.6-0.2-0.7l0.2-0.4c-0.1-0.3-0.2-0.5-0.2-0.8
		c0-0.3,0.3-0.5,0.8-0.5v-0.2c-0.6,0-0.8-0.5-0.8-1.5h0.2l-0.2-0.4v-1.5c0-0.5,0.2-1,0.7-1.5c0-0.2-0.1-0.3-0.2-0.3l0.2-1.1v-0.4
		l-0.2-1.5c0.1,0,0.6-0.5,1.5-1.6c0.2,0.2,0.5,0.2,0.9,0.2L112.3,35.1z M110.2,41.5c0.3,0,0.4-0.2,0.4-0.5h-0.2
		c-0.3,0-0.5,0.2-0.5,0.5H110.2z M110.6,45.9V46h0.5v-0.2H110.6z M110.8,50.6c0.3,0,0.5-0.1,0.5-0.4V50c-0.3,0-0.5,0.1-0.5,0.4V50.6
		z M111.5,36.1v0.4h0.4v-0.4H111.5z M116.1,47.3v0.5h0.2v-0.5H116.1z M121.6,55.2v0.2h0.5v-0.2H121.6z M122,46v0.2h0.4V46H122z
		 M122,46.4v0.5h0.6v-0.5H122z M122.6,62.7c0,0.3,0.2,0.5,0.5,0.5V63c0-0.3-0.2-0.5-0.5-0.5V62.7z M125.2,64.5v0.5h0.4v-0.5H125.2z
		 M126.2,59v0.3h0.4V59H126.2z M127,59v0.3h0.6V59H127z M127,59.9v0.4c0.3,0,0.4-0.1,0.4-0.4H127z M127.3,60.6v0.2h0.4v-0.2H127.3z
		 M128.3,54.5v0.4h0.2v-0.4H128.3z"/>
	<path class="st2" d="M135.3,30.3V31h0.2v-0.6h1.1c0.1,0,0.2,0.1,0.2,0.2c0.2,0,0.2-0.1,0.2-0.2c2.7,0.5,4.4,1,5,1.3
		c0.2-0.2,0.4-0.2,0.6-0.2c0,0.3,0.2,0.4,0.6,0.4v0.5c0,0.1-0.1,0.2-0.2,0.2c0,0.8,1,1.4,2.9,1.8c0,0.1,0.1,0.2,0.2,0.2
		c0.1,0,0.2-0.1,0.2-0.2l1.1,0.6l-0.2-0.4v-0.2h0.2l0.6,0.4c0.5-0.3,0.9-0.4,1.3-0.4c0,0.6,0.5,1.1,1.5,1.5l0.4-0.2
		c0,0.3,0.2,0.4,0.7,0.4v1.5c0.4,0.5,0.7,1,0.7,1.5v0.4c0,0.3-0.1,0.6-0.3,0.9c0.2,0.3,0.3,0.5,0.3,0.9v0.7l-0.5,0.6v0.2
		c0,0.2,0.1,0.2,0.2,0.2c-0.4,2.6-1.1,4.3-2.1,5.2c0,0.9-1,2.4-3.1,4.4c-0.4,0.5-1.2,1-2.5,1.7c0-0.1-0.1-0.2-0.2-0.2l0.2,0.4v0.2
		c-2.2,0.7-3.4,1.1-3.4,1.3c-3.3,0-5.3-0.9-6.1-2.6c-0.3,0-0.8-0.7-1.5-2.2l0.2-0.4v-0.2c-0.3,0-0.7-0.9-1.1-2.6
		c0.2,0,0.2-0.1,0.2-0.2h-0.4c0-1.2,0.3-1.7,0.8-1.7v-0.2c-0.2,0-0.4-0.1-0.6-0.3c0,0.3-0.2,0.5-0.5,0.5l-0.2-1.1
		c0-0.4,0.1-0.6,0.2-0.9c-0.1-0.7-0.3-1.1-0.4-1.1c0.1-1.3,0.3-2.4,0.6-3.2h-0.3c0.2-0.2,0.3-0.8,0.3-2l0.4,0.2h0.1l-0.4-1.1
		c0.3,0,0.6-0.8,1.1-2.4h0.2c0,0.1,0.1,0.2,0.2,0.2v-0.4h-0.4c0-0.3,0.2-0.5,0.4-0.5c0,0.2,0.1,0.3,0.2,0.3v-0.5H134v-1.3l0.4,0.2
		v-0.2c0-0.3-0.1-0.5-0.4-0.5c0.6-0.8,0.9-1.3,0.9-1.5H135.3z M132.6,40.7l-0.3,1.3h0.5c0-0.5,0.1-0.9,0.2-1.1L132.6,40.7z
		 M132.8,38.3v0.5h0.2v-0.5H132.8z M140.5,45.3l-0.2,1.5c0.3,2.7,0.6,4.1,1,4.1c1.2-0.2,2.5-1.5,3.8-4.1c0-0.4-1.3-0.7-4-1.1
		c0-0.3-0.1-0.4-0.4-0.4H140.5z M143.5,40.7c0,0.4-0.1,0.6-0.3,0.9c0.3,0,0.4,0.2,0.4,0.4l-0.2,0.4c0.7,0.6,1.3,0.9,1.9,0.9h0.4
		c0-0.1,0.1-0.3,0.2-0.6c-0.4,0-0.7-0.4-0.8-1.1c-0.3-0.6-0.5-0.9-0.7-0.9H143.5z M151.7,41.1v0.2h0.4v-0.2H151.7z"/>
	<path class="st2" d="M167.6,30.6c1.7,0,3.1,0.6,4,1.7h0.2v1.7c0,0.1-0.1,0.2-0.2,0.2l0.2,0.5v0.4c-1,0.7-1.6,2-1.9,3.7
		c-0.7,2.5-1.1,4.7-1.2,6.5h-0.7v0.2h0.5l-0.5,2.6h0.2c-0.2,0.8-0.4,1.9-0.6,3.5h0.2l-0.2,0.4v0.4h0.2c0.7,0,3.2-1.9,7.6-5.8
		c0.5-1.2,0.8-1.8,1.1-1.8c0.3,0,0.5-0.2,0.5-0.6h0.4c0.5,1,0.7,1.7,0.7,2.1v0.2c0,0.2-0.1,0.2-0.2,0.2l0.2,0.4
		c-0.6,0.5-1.1,1.3-1.3,2.7c-0.2,0-0.7,0.7-1.5,2.1c-1.7,1.4-2.5,2.3-2.5,2.6h-0.2l-0.5-0.2l-0.2,0.4c0.1,0,0.2,0.1,0.2,0.2
		c0,0-0.4,0.3-1.1,0.9h-0.2l-0.4-0.2l0.2,0.4c0,0.6-0.7,1.1-2.1,1.3h-0.5l-0.6-0.5c-0.3,0-0.8,0.2-1.5,0.5c-0.3-0.1-0.5-0.2-0.6-0.2
		v0.2c-0.6-0.1-0.8-0.3-0.8-0.5l-0.4,0.3c-1.7-1.1-2.5-2-2.5-2.8l0.2-0.4c-0.3,0-0.6-0.7-0.8-2c0.2,0,0.2-0.1,0.2-0.2
		c-0.3,0-0.4-0.2-0.4-0.5c0.1,0,0.2-0.1,0.2-0.2h-0.2c0.3-0.7,0.4-1.2,0.4-1.5l-0.2-0.5c0.4-1.6,1-3.2,1.7-4.5l-0.2-0.4l0.6-0.9
		v-0.7c-0.2,0-0.5-0.2-0.8-0.6l0.2-0.5v-0.2h-0.5c0,0.4-1,1.1-3.1,2.1c-1,2-1.6,3-1.7,3l0.1,0.4c-0.6,0.9-1,2.2-1.4,3.9l0.2,0.4
		c-1,2.3-2.2,3.5-3.8,3.5l-0.8,0.7c-0.2-0.2-0.5-0.2-0.8-0.2v-0.2c0-0.8,0.4-1.4,1.1-1.7l-0.2-0.5v-0.6l0.6-0.9
		c0-0.3-0.1-0.4-0.4-0.4c0.2-0.9,0.4-1.6,0.6-1.9l-0.2-0.5c1-1.8,1.5-2.9,1.5-3.2l1.9-3l3-2.1c0.9,0,2.9-1.9,6.1-5.7
		c0-0.7,0.4-1.9,1.3-3.5c0.3,0.2,0.5,0.2,0.6,0.2L167.6,30.6z M152.4,48.2v0.4h0.2v-0.4H152.4z M154.7,49.5c0,0.3,0.2,0.5,0.4,0.5
		v-0.5H154.7z M155.6,49.5v0.2h0.4v-0.2H155.6z M161,51.2v0.2h0.4v-0.2H161z M161.4,47.8V48c0,0.3,0.2,0.4,0.4,0.4v-0.6H161.4z
		 M161.6,49.1v0.2h0.5v-0.2H161.6z M161.6,51.9v0.4h0.2v-0.4H161.6z"/>
	<path class="st2" d="M184.2,0.6l1-0.2c1,0.1,1.8,0.9,2.5,2.4c0.2,0,0.5,0.5,1,1.4c-0.2,0-0.4,0.5-0.8,1.4c0.1,0.2,0.2,0.5,0.2,0.8
		c0,0.5-0.2,0.8-0.6,0.8v0.2c0.1,0.3,0.2,0.4,0.4,0.4l-0.2,0.4c0.1,0.7,0.2,1.3,0.2,1.8c0,0.1-0.1,0.2-0.2,0.2l0.2,0.4
		c0,0.2-0.2,0.4-0.6,0.6c0.2,0.7,0.3,1.3,0.3,1.6c-0.1,0.5-0.2,0.8-0.6,0.8c0.2,1.6,0.3,2.6,0.3,3c-0.2,0-0.4,0.6-0.5,1.8l0.4,1.3
		c-0.3,0.6-0.6,0.9-0.8,1c0,0.1,0.1,0.2,0.2,0.2c-0.1,1.3-0.3,2.1-0.5,2.4c0.2,0,0.3,0.2,0.3,0.4v0.6c0,0.3-0.2,0.4-0.6,0.4l0.4,0.6
		c-0.1,1.2-0.4,1.8-0.8,1.8l0.2,0.4v0.8c0,0.2-0.1,0.2-0.2,0.2l0.2,0.4v0.8c0,0.6-0.2,1.3-0.6,2c0.2,0,0.4,0.2,0.4,0.4v0.6l-0.8,0.2
		v0.1l0.8,0.8c-0.3,0-0.5,0.5-0.6,1.4c0.2,0.3,0.2,0.5,0.2,0.7H185c0.2,0.2,0.2,0.4,0.2,0.6c-0.3,0.5-0.5,1.2-0.6,2
		c0.1,0,0.2,0.1,0.2,0.2c-0.5,0.2-0.8,0.4-0.8,0.6v0.2h0.4l0.3-0.2l0.2,0.4c-0.2,0.2-0.5,0.2-0.8,0.2v0.2c0.5,0,0.8,0.1,0.8,0.4
		l-0.4,0.2h-0.1v-0.4c-0.3,0-0.4,0.2-0.4,0.4c0.6,0.3,1,0.6,1,0.8h-0.2c0,0.1,0.1,0.2,0.2,0.2c0,0.3-0.1,0.4-0.2,0.4l0.2,2v2
		c0.3,0.7,0.6,1,0.8,1h0.2c1-1.1,1.6-2.3,2-3.9l0.8-0.6h0.4c0.3,0,0.6,0.9,1,2.6c-0.6,3.2-1.3,4.8-2.1,4.8c-0.2,0.6-1,1.6-2.3,2.9
		v0.2l0.2,0.4l-0.4,0.2c-0.1-0.4-0.5-0.6-1.2-0.6c-0.1,0-0.2,0.1-0.2,0.2l-0.8-0.4c0,0.2-0.2,0.4-0.6,0.6h-0.6
		c-0.1,0-0.2-0.1-0.2-0.2c-0.4,0.3-0.8,0.4-1.2,0.4h-0.2c-1.1,0-1.9-0.4-2.5-1.2v-0.6c-0.8-0.2-1.3-1-1.5-2.2h0.2
		c-0.4-1.2-0.7-1.8-0.8-1.8l0.2-0.4v-0.2c-0.3,0-0.4-0.1-0.4-0.2c0-0.1,0.1-0.2,0.2-0.2l-0.4-3.4h0.2l-0.2-0.4
		c0-0.3,0.1-0.7,0.4-1.4c-0.1-0.6-0.2-1.1-0.2-1.4c0.1-0.3,0.2-0.5,0.2-0.6c-0.1,0-0.2-0.1-0.2-0.2c0.2-0.1,0.5-0.2,0.8-0.2v-0.4
		h-0.2l-0.4,0.2l-0.2-0.4v-0.2c0-0.5,0.2-0.9,0.6-1.4l-0.6-0.4c0-0.8,0.2-1.4,0.6-1.8h-0.4v-0.2c0-0.2,0.1-0.2,0.2-0.2l-0.2-0.4
		c0.1-0.3,0.2-0.4,0.4-0.4c-0.1-0.7-0.3-1-0.6-1c0.1-0.5,0.3-1,0.6-1.4c-0.2,0-0.4-0.2-0.6-0.6l0.6-2.5l-0.2-0.4v-0.4
		c0-0.9,0.3-1.4,1-1.4V26h-0.2c-0.3,0.1-0.5,0.2-0.6,0.2l-0.2-0.4l0.2-0.4c-0.1-0.2-0.2-0.4-0.2-0.6c0.4,0,0.7-0.6,0.8-1.7
		c-0.2,0-0.4-0.1-0.4-0.2c0.4-4.3,0.8-7,1.3-8c0-0.1-0.1-0.3-0.2-0.6c0.4-2.2,0.7-3.3,1-3.3l-0.2-0.4c0.5-4.2,1-6.2,1.4-6.2
		c-0.2-1.4-0.3-2.1-0.3-2.2l1-0.8h0.6v0.4h0.4c0-0.5,0.6-1,1.9-1.4L184.2,0.6z M176.1,30.4c0,0.3,0.2,0.4,0.4,0.4l0.2-0.4H176.1z
		 M176.1,35.7v0.4h0.2v-0.4H176.1z M176.1,40.9c0.3-0.2,0.5-0.2,0.6-0.2v-0.4c-0.1,0-0.3-0.1-0.6-0.2V40.9z M176.3,31v0.2h0.4V31
		H176.3z M177.6,18.5v0.6c0.2,0,0.4-0.1,0.4-0.4L177.6,18.5z M181.9,37.2v0.4h0.2v-0.4H181.9z M182.1,1.1v0.4h0.2V1.1H182.1z
		 M183.3,31.8v0.4h0.4v-0.4H183.3z M183.8,35.1l0.4,0.2c0.2,0,0.4-0.1,0.4-0.4c0-0.3-0.1-0.4-0.4-0.4L183.8,35.1z M185,25.8V26h0.4
		v-0.2H185z M185.3,29.2v0.4h0.2v-0.4H185.3z M185.8,21.9h0.4c0-0.3-0.1-0.4-0.4-0.4V21.9z M186.4,18.3v0.4h0.2v-0.4H186.4z"/>
	<path class="st2" d="M195.4,31.6l0.5-0.2c2.1,0.5,3.1,1.3,3.1,2.2c-0.3,0.5-0.5,0.9-0.5,1.3h0.3c-0.2,0.9-0.3,1.3-0.4,1.3l0.2,0.4
		c0,0.3-0.1,0.6-0.2,0.9c0.1,0.3,0.2,0.6,0.2,0.9c0,0.1-0.1,0.2-0.2,0.2l0.2,0.4c-0.1,0.5-0.2,0.7-0.4,0.7l0.2,0.4v0.7h-0.4
		c0,0.3,0.2,0.4,0.6,0.4v0.2l-0.4,0.7c0.1,0,0.2,0,0.2,0.1h-0.2c0.1,0.3,0.2,0.5,0.2,0.7c0,0.7-0.1,1.1-0.4,1.1l0.2,0.4v1.3
		c0,0.3-0.2,0.4-0.7,0.4c0.3,2,0.6,3,0.9,3h0.2c0.5-0.4,0.9-0.6,1.1-0.6c1.1,0,1.7,0.2,1.7,0.6c-0.3,1.1-0.5,2.1-0.5,2.8l0.2,0.5
		c0,1.4-1,2.6-3.1,3.5c-1.5-0.5-3-0.8-4.4-0.9v-0.3l-0.4,0.3c-0.8,0-1.7-0.8-2.8-2.4h-0.2l0.2-0.4c-0.4,0-0.7-0.5-0.9-1.5v-0.2
		c0.2-0.3,0.2-0.5,0.2-0.7c-0.3,0-0.5-0.1-0.5-0.4c0-0.2,0.1-0.3,0.2-0.3l-0.2-0.4c0.2-0.3,0.2-0.5,0.2-0.6c-0.2,0-0.2-0.1-0.2-0.2
		l0.5-0.2l-0.2-0.4V47l0.2-1.1h-0.2c0.2-0.3,0.3-0.9,0.4-1.9h0.2l0.4,0.2V44c-0.1,0-0.2-0.1-0.2-0.2c0.5,0,0.8-0.2,0.8-0.5v-0.2H191
		l-0.9,0.6v-0.6c0-0.3,0.1-0.6,0.2-0.9c-0.2-0.3-0.2-0.5-0.2-0.9v-0.4c0.4,0,0.7-1.3,0.9-3.9l-0.2-0.9c0-0.9,0.2-1.3,0.6-1.3v-0.6
		l-0.2-0.5c0.3,0,0.5-0.1,0.5-0.4c-0.4-0.1-0.6-0.6-0.6-1.3c0-0.2,0.4-0.8,1.3-1.7L195.4,31.6z M191.4,41.4v0.3h0.4v-0.3H191.4z
		 M204,15.5c0-0.1,0.1-0.2,0.3-0.2v0.2c-0.2,0.2-0.4,1-0.6,2.6c-1.5,0.6-2.6,1.6-3.4,3c0,0.2-0.3,0.5-0.8,0.9l0.2,0.4
		c0,0.4-1.1,0.8-3.2,1.3c-0.5,0-1.8-0.4-4-1.3v-0.6l0.4,0.2h0.3v-0.2h-0.5c1.1-1.1,1.8-2,2.1-2.6c0.5,0,1.8-1,3.8-3.1
		c0.5-0.2,1-0.3,1.7-0.5c0.8-0.2,1.6-0.4,2.6-0.6C203.3,15.4,203.7,15.5,204,15.5z M194,48.3v0.4h0.2v-0.4H194z M194.3,40.7v0.4h0.2
		v-0.4H194.3z M195.8,48.1v0.5h0.2v-0.5H195.8z"/>
	<path class="st2" d="M219.5,31.8c0,0.2,0.8,1.1,2.3,2.6c0.2,0.6,0.5,1.2,0.8,1.7c-0.2,0-0.4,0.2-0.4,0.4c0.4,0,0.8,1.6,1,4.7
		l-0.5-0.2v0.5h0.5v0.4c0,0.1-0.1,0.1-0.2,0.1c0.3,0.8,0.4,1.8,0.4,2.9h-0.2c0,0.2,0.1,0.3,0.2,0.3l-0.2,1.5v2.1h0.6
		c0.2-0.7,0.8-1.4,1.9-1.9c0.5,0,0.8,0.5,1.1,1.6c0,1.3-0.4,2.6-1.2,3.9c0,0.9-0.8,1.6-2.3,1.9c-0.3-0.1-0.5-0.2-0.7-0.2v0.4h-0.2
		v-0.4l-1.1,0.2c0-0.2-0.9-0.5-2.6-0.9c-0.6-0.2-1.1-0.9-1.5-1.9v-0.2h0.7l-0.2-0.5c0.1,0,0.2-0.1,0.2-0.2h-0.2
		c-0.3,0-0.5,0.2-0.5,0.6h-0.2l-0.2-1.3c0.1-0.3,0.2-0.5,0.2-0.6c-0.2-0.2-0.5-0.3-0.7-0.3V47c0-0.3-0.1-0.6-0.2-0.9l0.5-1.1
		c-0.2-0.3-0.3-0.5-0.3-0.7h0.3l-0.3-0.4v-0.2l0.3-1.3c0-0.2-0.1-0.2-0.3-0.2l0.3-1.1v-1.1c0-0.1-0.1-0.2-0.3-0.2l0.3-0.5V39
		c0-0.3-0.2-0.4-0.5-0.4c-0.4,0.5-1.3,2.6-2.5,6.1c-0.3,1.4-0.6,2.1-0.8,2.2l0.2,0.5v0.2c-0.3,0-0.6,0.6-0.8,1.9
		c-0.2,0-0.4,0.5-0.6,1.5c-0.2,0-0.6,1-1.3,2.9c-0.3,0-0.5,0.3-0.6,0.9c-0.3,0.1-0.6,0.2-0.9,0.2h-0.7v-0.4h-0.2v0.4H208l-0.4-0.2
		v0.2l-0.4-0.2l-0.4,0.2c-0.3-0.3-0.5-0.6-0.5-0.8l-0.8,0.2c-1.4-0.3-2.1-0.8-2.1-1.7l-0.5-1.4h0.3l-0.6-2.8
		c0.1-0.5,0.2-0.7,0.4-0.7c-0.1-1-0.3-1.5-0.4-1.5l0.2-0.4v-0.4c0-0.2-0.1-0.3-0.2-0.3l0.2-0.4c0-0.2-0.1-0.2-0.2-0.2
		c0.3-1.6,0.6-2.3,0.8-2.3c-0.2-1.4-0.3-2.2-0.5-2.4c0.2-0.9,0.5-2.5,0.9-4.8c0.1,0,0.2-0.1,0.2-0.2v-2.1c0.1-0.3,0.2-0.4,0.5-0.4
		v0.3l0.4-0.3c1.2,0.4,1.7,1,1.7,1.7h0.2c0.2,0,0.4-0.1,0.4-0.4c0.5,0,1,0.6,1.5,1.9c-0.2,0.3-0.3,0.5-0.3,0.7
		c-0.1,0-0.2-0.1-0.2-0.3l-1.1,0.3h-0.2l-0.8-0.7l-0.2,0.4c0.1,0,0.2,0.1,0.2,0.3c-0.4,0.1-0.7,0.4-0.9,0.8c0.4-0.1,0.7-0.2,0.7-0.4
		l0.4,0.2l0.5-0.2V37h0.2c0.3,0,0.4-0.1,0.4-0.4c-0.2,0-0.2-0.1-0.2-0.2h0.8l0.2,0.4h-0.6V37h0.6c0-0.2,0.1-0.2,0.2-0.2l0.7,1.5
		c0,0.1-0.1,0.2-0.2,0.2l0.2,1.1c-0.1,1.8-0.2,2.7-0.2,2.8h0.2c0.3,0,0.7-0.6,1-1.9c0.3,0,0.8-1,1.5-3h0.2c0.8,0,1.3,0.5,1.3,1.5
		h0.2c0.7-0.4,1.1-0.7,1.1-0.9c-0.2,0-0.5-0.3-0.9-0.9H213l0.2-0.5c-0.3,0-0.5-0.4-0.6-1.1c0.3-0.5,0.4-0.8,0.4-1.1h0.2l0.5,0.2
		c0-0.2,0.3-0.5,0.9-0.8v-0.5l0.4,0.2l0.4-0.2c0,0.5,0.1,0.7,0.4,0.7h0.3c0.1,0,0.2-0.1,0.2-0.2l0.4,0.2h0.5l0.4-0.2
		c0.1,0.3,0.2,0.4,0.5,0.4h0.2v-0.2h-0.4V34c1-1.2,1.5-1.9,1.5-2.2H219.5z M202.9,45.9v0.7h0.3v-0.7H202.9z M205.1,35.1v0.2h0.4
		v-0.2H205.1z M206.1,35.1v-0.5c-0.3,0.1-0.4,0.2-0.4,0.5H206.1z M206.5,37.7v0.4h0.2v-0.4H206.5z M210.7,49.2v0.3h0.4v-0.3H210.7z
		 M212.4,47.3l-0.2,0.4h0.2l0.2-0.4H212.4z M214.1,34.8v0.4h0.2v-0.4H214.1z M216.9,47.9v0.2h0.4v-0.2H216.9z M216.9,48.7v0.2h0.4
		v-0.2H216.9z M217.7,47v0.5h0.2V47H217.7z"/>
</g>
</svg>
