<svg id="Layer_1" data-name="Layer 1" xmlns="http://www.w3.org/2000/svg" viewBox="0 0 163.78 66.97"><defs><style>.cls-1{fill:#231f20;}</style></defs><path class="cls-1" d="M0,57.42H.33v.15H0ZM5.84,29.07l.8-.18H7.8c.64.34,1,.62,1,.84a1.36,1.36,0,0,1-.51.15V30h.18a1.74,1.74,0,0,1,.46-.13c.31.52.53.78.68.79l-.15.84v.94a3.23,3.23,0,0,0,.46,2V35c0,.14-.06.2-.18.2a3.53,3.53,0,0,0,.66,1.45l-.15.33v.64c0,.23.11.35.28.35l-.13.29v.52a2.68,2.68,0,0,0,.33,1.28l-.33.61c.29,0,.51.5.64,1.5,0,.1,0,.15-.16.15l.16.79V44.3l.2.3c-.14,0-.2.06-.2.16h.2c-.15.77-.27,1.16-.36,1.16a5.38,5.38,0,0,1,.49,1.94h-.13c0,.1,0,.15.13.15l-.13.81v.31l.13.33c-.22,0-.33.15-.33.33h.2l-.2.35a.32.32,0,0,0,.33.29l-.13.35.13.79H11l.2.31v.35c0,.12-.07.18-.2.18l.2.28V53l-.36.48v.33h.36v.64c-.34,0-.51.12-.51.35h.51l-.2.29a.3.3,0,0,0,.33.33,1.65,1.65,0,0,0-.33.83l-.31-.19v.19a1,1,0,0,1,.15.44v.18H10.7v-.29c-.22,0-.33.1-.33.29l.33.18-.2.33.2.94-.33-.13v.3l-.48-.3a1.16,1.16,0,0,1-.18.63,1.06,1.06,0,0,1,.66.2v-.35h.13v.44c-.09,0-.13.07-.13.2h.13a1.46,1.46,0,0,0-.13.5h-.31V59.5l-.48.35H9.43a1.35,1.35,0,0,0-.18-.7h.33v-.29c-.18,0-.34.17-.48.49l-.84-.29a.9.9,0,0,0,1,.62L9.1,60l.15.31H9.1l.15.35c0,.3-.27.46-.81.46l.15.35c-.42,0-.64.27-.64.81h-.3L7.8,62H7.45v.16l.2.3-.35.16a.15.15,0,0,0-.16-.16c0,.11,0,.16-.15.16V62c-.13,0-.2-.12-.2-.35H6.64c-.36,0-.68.65-1,2H5.36v-.35l.31-.47a1.65,1.65,0,0,1-.79.33l.15.29H4.88l-.51-.29v.14c.22.05.33.17.33.35l-.33.15H4.22l.15-.35a1.81,1.81,0,0,1-1.27-.62v-.33l.33.16.3-.16c0,.11.06.16.18.16v-.29H3.58l-.35.13a.12.12,0,0,0-.13-.13v.13a2.46,2.46,0,0,0-1.17-.63c0-.12.07-.18.2-.18l-.2-.31v-.17l.2-.33h-.2a.13.13,0,0,1-.15.15l-.15-.28v-.35l.3.19h.2a2.37,2.37,0,0,1-.81-1.8h.17l.29.15-.15-.33v-.17h.3a.26.26,0,0,0-.3-.29c0,.43-.17.64-.49.64V57.9l-.33.17a12,12,0,0,1-.66-2,11.59,11.59,0,0,1,.33-1.45L.15,53.52c.12,0,.3-.21.53-.65,0-.12-.06-.18-.2-.18A6.44,6.44,0,0,1,1,50.43c-.21,0-.31-.1-.31-.29.37,0,.68-.87.95-2.61h.3l-.15-.33c.23,0,.35-.11.35-.31s-.06-.18-.2-.18Q3.76,43,4.22,43H4.7a1.25,1.25,0,0,1-.15-.48l.48.35v-.18a.29.29,0,0,1-.33-.33q0-.15.18-.15l-.18-.33a2,2,0,0,1,.33-1H4.88q0,.15-.18.15v-.63H5a2.79,2.79,0,0,1-.33-1.17q.18,0,.18-.15c-.15,0-.37-.75-.66-2.26,0-.11,0-.16.15-.16q-.19-1.53-.46-7.47c.12,0,.7-.1,1.76-.31C5.79,28.89,5.84,29,5.84,29.07ZM.68,54.65a.8.8,0,0,1-.2.48h.2l.13-.29v-.19Zm.13,2.08v.69l.33-.16A1.67,1.67,0,0,1,1,56.73ZM1,53.52v.33h.15v-.33ZM1.32,53v.31h.17V53Zm.17-3.58c.19,0,.29-.11.29-.33V49a.33.33,0,0,0-.29.35Zm.29,2.42c.16,0,.33-.16.51-.46-.44.17-.66.33-.66.46Zm.35,5.21a1.06,1.06,0,0,1-.2-.64c-.2,0-.3.11-.3.28ZM1.93,55v.13h.36V55Zm0,.46v.33h.36v-.33Zm.36-7.93v.33h.13v-.33Zm.13.81a1.93,1.93,0,0,1-.13.48l.28.16v-.64Zm-.13,7.6v.35h.13v-.35Zm0,3.21v.2l.28.15v-.15Zm.13-12.59c.06.22.17.33.35.33l.15-.33Zm0,2.57v.2l.35.13v-.13Zm0,1.93v.36l.35.15a1,1,0,0,1-.2-.51Zm0,1.17v.64h.35a1.06,1.06,0,0,1-.2-.64Zm0,3.05v.35h.15v-.35Zm.15,4.57-.15.31a1.71,1.71,0,0,1,.5-.15v-.16Zm1-14.59c.16,0,.32.17.46.51H3.73l.18.79-.33.15a1.24,1.24,0,0,1,.15.49L3.58,48h.15a1,1,0,0,0-.15.5l-.35-.17.2.31v.17H3.1v.31L3.43,49v2.08h-.2v-.44c-.21,0-.31.12-.31.31.21,0,.31.12.31.31v.18l-.46.81a.3.3,0,0,1,.33.33.87.87,0,0,0-.18.48c.13.32.24.48.31.48a7.34,7.34,0,0,1-.46,1.32.14.14,0,0,1,.15.16H2.57l.35.94a1.53,1.53,0,0,0-.15.51c.1,0,.15.06.15.17H2.77l.15.29-.15.35q.33,0,.33.48l.33-.17h.15v.33H4q.32-1.8.66-1.8l-.15-.31v-.33A1,1,0,0,0,5,55.28a.16.16,0,0,0,.18.18A1,1,0,0,1,5.36,55v-.16H5.21c0,.3-.22.44-.66.44a1,1,0,0,0,.15-.44L5,55v-.35H4.7A1.1,1.1,0,0,1,4.88,54a1.4,1.4,0,0,1-.18-.49L5,52.87a1.46,1.46,0,0,1-.15-.64h.33l.33.18a2,2,0,0,1,.13-.53l-.31-.13H5.21v.33H5v-.51h.33v-.33H4.88A1.24,1.24,0,0,0,5,50.78h.18v.28h.15v-.44H5v-.35l.33.16-.15-.29.15-.35A.29.29,0,0,1,5,49.46v-.64h.33v-.31H5V48a1.16,1.16,0,0,1,.18-.66,4.27,4.27,0,0,0-.51-1.14l.51-.64H4.88v-1c0-.08-.06-.13-.18-.13l.18-.35V44c0-.21-.11-.31-.33-.31A6,6,0,0,1,3.58,45.26Zm-1,16.35c.07.23.19.35.35.35v-.35Zm.53-16v.2h.33v-.2Zm0,15.91v.13h.33v-.13Zm.13-16.72v.35h.2v-.35Zm0,2.77v.33h.2v-.33Zm.2,11c0,.23.12.33.3.33h.18a.3.3,0,0,0-.33-.33Zm.3,1.79H4c0-.14-.15-.29-.46-.47A1.22,1.22,0,0,1,3.73,60.32Zm.82,1.8L4,61.3H3.73c0,.21.14.31.31.31L3.91,62v.16H4v-.33a4.63,4.63,0,0,1,1,1l-.15-.33v-.13A.3.3,0,0,1,5.21,62c0,.11,0,.16.15.16V62c-.1,0-.15-.06-.15-.17.42,0,.63-.16.63-.49v-.17q-1,.39-1,1ZM4,58.86v.2l.33.09v-.09Zm0,3.43a.33.33,0,0,0,.33.29v-.29Zm.18-4.39v.17h.33V57.9Zm.33-.33h.33c0-.21-.11-.31-.33-.31Zm.15-4.88h.18V53H4.7Zm.51,5.38v-.33c-.18,0-.35.17-.51.49A1.24,1.24,0,0,1,5.21,58.07ZM4.7,59.35v.15H5v-.15Zm0,1.32H5l.18-.35a.92.92,0,0,1-.51.19ZM8.9,16.41c0,.24.07.36.2.36l.61-.36,1.63,1.45V18a1.09,1.09,0,0,1-.84,1.16l.2.33v.16l-.81-.16H9.71l-.81.66c-1.7-.07-2.55-.24-2.55-.5l.13-.33H6.15v.33c-.63,0-1.05-.44-1.27-1.3,1.27-.7,1.91-1.14,1.91-1.3q1.8-.12,1.8-.66Zm-4,15.23v.18h.33v-.18Zm0,26.89v.18c0,.23.12.35.33.35v-.53Zm0,1.48H5a1.15,1.15,0,0,1,.51-.16v-.17H5.36a1.31,1.31,0,0,1-.48.17Zm.48-15.89v-.46c-.22,0-.33.12-.33.31ZM5,56.1h.33c0-.21-.11-.31-.33-.31Zm.33-11.5a1.74,1.74,0,0,1-.15.51h.15l.18-.35V44.6Zm0,1.81-.15.3h.15l.18-.3ZM5.67,53v.64l-.31-.16H5.21v.16a.29.29,0,0,1,.33.33h.13l.17-.66V53Zm-.13.31V53c-.22,0-.33.12-.33.31ZM5.21,54v.48h.15V54Zm0,2.44a1.26,1.26,0,0,1,.15.64h.18v-.47Zm.15-13.78v.79h.18v-.79Zm0,15.23a1.31,1.31,0,0,1,.48-.16c0-.22-.1-.32-.3-.32A1.2,1.2,0,0,1,5.36,57.9Zm0,4.39v.13h.31v-.13ZM5.54,47.2v.15h.3V47.2Zm0,4.22h.3q0-.36-.3-.36Zm0,6.94v.35h.13v-.35Zm0,2.44h.13v-.13a3.15,3.15,0,0,0,1,.28c0-.19-.33-.34-1-.44Zm.3-16-.17.35v.15h.17a1.45,1.45,0,0,1,.16-.5Zm-.17,5.86H6c0-.23-.11-.35-.33-.35Zm0,3.59v.44h.17v-.44Zm0,5.29v.18H6V59.5Zm.48-7.42v-.51c-.2,0-.31.12-.31.31Zm-.31,6.15v.3H6v-.3ZM6.15,38,6,38.28h.15l.2-.29ZM6,44.3v.17h.48V44.3Zm.15,2.59L6,47.2a.13.13,0,0,1,.15.15q-.15,0-.15.18h.15l.2-.33h-.2l.2-.31c0-.22-.12-.33-.35-.33Zm.49,3.89v-.51c-.16,0-.38.22-.64.66A1.34,1.34,0,0,1,6.64,50.78Zm-.49,2.09a1.25,1.25,0,0,1-.15.48q.48,0,.48.33H6.15v.17h.33a1.36,1.36,0,0,0,.16-.65l.35.15L7.14,53a1,1,0,0,1-.5-.17v.33H6.35v-.33Zm0-6.95h.33c0-.23-.11-.35-.33-.35Zm0,3.06.49.35h.15v-.2a1.18,1.18,0,0,1-.64-.31Zm.33,5a1.17,1.17,0,0,1-.33.64h.33a.85.85,0,0,1,.16-.44V54Zm-.33,8.11h.33q0,.3-.33.3Zm.2-21.87v.29h.13v-.29Zm0,3.21v.66h.13v-.66Zm0,4.88v.17h.29v-.17Zm0,4.07c0,.18.13.28.29.28v-.13l-.16-.33a1.44,1.44,0,0,0,.16-.48.32.32,0,0,0-.29.33Zm0,2.87v.35h.13v-.35Zm0,4.88h.13c0-.1,0-.15.16-.15a.13.13,0,0,0,.15.15V60c0-.22-.1-.33-.31-.33A1.63,1.63,0,0,1,6.35,60.16Zm.13-10.52V50h.16v-.35Zm0,1.29v.31h.16v-.31Zm.82,3.28c0,.19-.23.45-.66.79L7,54.84H7.3l-.66.79L7,55.46h.15v.33H7.3v-.33H7.14l.51-.81H7.3l.15-.33v-.11Zm-.66,3.36v.33h.15v-.33ZM6.79,47h.35c0-.2-.12-.31-.35-.31ZM7,51.57l-.2.66v.18H7l.15-.66v-.18Zm-.2,7.58v.35l.51.35V59.5c-.21,0-.31-.12-.31-.35Zm.35-8.53L7,50.93v.13h.15a1.93,1.93,0,0,1,.31-.79H7.3a.31.31,0,0,0-.31.35Zm.66.44q.15,0,.15.18c-.2,0-.52.54-1,1.63H7.3v-.64h.35v.18l-.2.28v.18h.2l.15-.64H7.65a2.37,2.37,0,0,1,.61-1.17,1.25,1.25,0,0,1-.46-.13ZM7.14,37.84v.28H7.3v-.28Zm0,5.14a1.44,1.44,0,0,1,.16.48h.15v-.33ZM7.8,54.65H8v-.33c0-.31-.16-.47-.5-.47v-.5l.35.17V53H7.65c-.15,0-.32.22-.51.64A1,1,0,0,1,7.8,54.65Zm-.5-5.32v.31h.15v-.31Zm0,1.91v.33h.15v-.33Zm.35,4.86v-.31c-.24,0-.35.12-.35.31ZM7.3,61.48v.13h.35v-.13Zm.15-4.57c.06.23.18.35.35.35v-.17a.32.32,0,0,0-.35-.36Zm0,2.59H7.8L8,59.15a1,1,0,0,1-.5.2Zm.2-2.08v.32H7.8v-.32Zm.15,2.74-.15.35a.26.26,0,0,0,.3.29l-.15-.29L8,60.16ZM8,49l-.15.35H8L8.09,49Zm-.15.81h.29c0-.22-.1-.33-.29-.33ZM7.8,55v.28q.15,0,.15.18c-.1,0-.15.06-.15.17H8c.09,0,.14-.05.14-.17l.35.17c.22,0,.33-.11.33-.35H8.59q0,.18-.15.18v-.33l-.35.15H8V55ZM8,50v.15h.49V50Zm0,.44v.35h.14v-.35Zm.14,2.13a.93.93,0,0,1,.17.48,1,1,0,0,0-.17.48h.35l.15-.65Zm0,2.44a.31.31,0,0,0,.35-.35v-.16c-.24,0-.35.13-.35.35Zm0,.79v.5a.31.31,0,0,0,.35-.35Zm0,2.92v.15h.35v-.15Zm0,1.45v.16h.35v-.16Zm.17-1.93v.3h.18v-.3Zm.18-8.59v.15l.33.2v-.2Zm.15,2.11-.15.66.46.28v-.13c-.21,0-.31-.11-.31-.33l.18-.35v-.13Zm.18,1.6.33.5c-.13,0-.2.06-.2.16l-.31-.16H8.44c0,.17.15.32.46.47s.41-.33.53-1l-.33.17a.29.29,0,0,0-.33-.32Zm.13-1.78v-.51a.36.36,0,0,0-.31.36Zm-.13,4.06a1,1,0,0,1-.18.47h.18l.13-.31v-.16ZM8.59,60v.15H8.9V60Zm.18-14.09v.29H8.9v-.29Zm0,9.08a.31.31,0,0,0,.33.28h.15V55Zm.13,1.29v.16h.35v-.16Zm.35,2.24v-.3c-.23,0-.35.13-.35.3ZM9.1,55.79v.31h.48v-.31Zm.15-1.14a1.23,1.23,0,0,1,.81.35l.16-.35v-.16l-.33.16-.18-.33a.9.9,0,0,1-.46.17Zm.33-2.24-.15.28v.18h.15a.27.27,0,0,1,.31-.31v-.15ZM9.43,53v.16h.28V53Zm0,4.22v.31h.15v-.31Zm0,1v.13h.28v-.13Zm.15-7.3v.31h.13v-.31Zm.31-.79-.18.29c0,.23.15.35.35.35l-.17-.35.17-.29Zm.17,2.27c0,.18-.11.28-.35.28v.18h.35l.16-.31v-.15Zm-.35,2.72v.33h.18v-.33Zm0,1.16v.16h.35v-.16Zm0,1.28v.5a1.46,1.46,0,0,1,.51-.17.29.29,0,0,0-.33-.33ZM10.06,54l-.17.31h.17l.16-.31Zm.31-1.14v.33L10.06,53v.16a1.24,1.24,0,0,1,.16.48h.15a.29.29,0,0,1,.33-.33v-.48Zm-.15,2.76-.16.31h.16l.15-.31Zm0-4.85v.28h.15v-.28Zm0,.79v.31h.15v-.31Zm.15,2.64a.32.32,0,0,0,.33.28v-.28Zm.13-10.09v.48h.2v-.48Zm0,7.76v.35a.31.31,0,0,0,.35-.35Z" transform="translate(0 0)"/><path class="cls-1" d="M14.13,25.18v.48h.15v-.48h.84a.13.13,0,0,1,.15.15q.18,0,.18-.15a23.13,23.13,0,0,1,3.89,1A.93.93,0,0,1,19.8,26q0,.33.48.33v.35c0,.09-.05.13-.15.13,0,.63.75,1.07,2.26,1.32,0,.11.06.16.18.16s.15-.05.15-.16l.84.46-.18-.3V28.1h.18l.46.29a2.27,2.27,0,0,1,1-.29c0,.43.39.79,1.17,1.1l.28-.13q0,.33.51.33v1.12a1.82,1.82,0,0,1,.5,1.12V32a1.05,1.05,0,0,1-.19.64,1.14,1.14,0,0,1,.19.66v.5l-.35.46v.18c0,.12.05.18.16.18-.31,1.94-.85,3.23-1.61,3.86,0,.71-.8,1.79-2.41,3.25a7.12,7.12,0,0,1-2,1.28c0-.09-.05-.13-.15-.13l.15.28v.18c-1.73.51-2.59.84-2.59,1q-3.83,0-4.68-2-.33,0-1.17-1.65l.18-.28v-.16c-.25,0-.52-.66-.82-2,.12,0,.18-.05.18-.16H12c0-.86.23-1.29.64-1.29v-.16a.8.8,0,0,1-.49-.2c0,.24-.11.36-.35.36L11.69,36a1.29,1.29,0,0,1,.15-.66c-.1-.53-.19-.79-.28-.79A9.73,9.73,0,0,1,12,32.17h-.2c.14-.12.2-.62.2-1.5l.33.14h.11l-.29-.8c.21,0,.48-.58.82-1.75h.15c0,.08.06.13.18.13V28.1H13c0-.23.12-.35.33-.35,0,.13.05.2.15.2V27.6h-.33v-1l.33.13v-.13c0-.23-.11-.35-.33-.35a3.63,3.63,0,0,0,.66-1.12ZM12,33l-.2,1h.35a1.54,1.54,0,0,1,.18-.84Zm.15-1.8v.35h.18v-.35Zm6,5.23L18,37.49c.2,2,.47,3,.79,3,.92-.13,1.9-1.15,2.94-3,0-.28-1-.55-3.09-.82,0-.19-.11-.28-.33-.28ZM20.48,33a1.1,1.1,0,0,1-.2.66.3.3,0,0,1,.33.33l-.13.28a2.5,2.5,0,0,0,1.45.64h.28a1.2,1.2,0,0,1,.18-.46c-.31,0-.51-.26-.62-.79s-.4-.66-.5-.66Zm6.3.31v.15h.31v-.15Z" transform="translate(0 0)"/><path class="cls-1" d="M31.53,26.54c.09,0,.13-.06.13-.17a25.49,25.49,0,0,1,3.76,1.34l.31-.2h.15a.31.31,0,0,0,.35.35l-.35.92a.16.16,0,0,1,.18.18,8.05,8.05,0,0,1-2.44,1.63c-.21.44-.47.66-.79.66v.17a.13.13,0,0,0,.15.15c-.64,1.4-1.08,2.09-1.32,2.09V34l.35-.17v.33q.23,0,3.87-1.32h1a.14.14,0,0,1,.16.15l.28-.15c1.2.45,1.8,1,1.8,1.78h.18l-.18.35v.15c.37,0,.64.44.82,1.3h.15l-.15.79v.18c0,.11,0,.17.15.17l-1.45,2.57c0,.63-.7,1.61-2.11,2.93l-.31-.16.16.33a1.64,1.64,0,0,1-1,1.12q-.81.55-.81,1c-1.19.84-1.78,1.37-1.78,1.61H32.5l-.84-.16v.33q.51,0,.51.33H32l-.35-.18v.33h-.28V46.8H31.2c0,.65-.05,1-.15,1a4.83,4.83,0,0,1-1.94,1c0-.23-.11-.33-.35-.33v.33H27a.29.29,0,0,1-.33-.33,1.19,1.19,0,0,0,.18-.64l-.33-.16.15-1.12v-.17l-.3-.51a13.69,13.69,0,0,0,2.76-2.57l.29.16h.2v-.16h-.35q1.72-2.31,2.13-2.31,3-3.42,3.05-3.53c0-.19.39-.68,1.17-1.45,0,0,.09-.35.28-1-.57.21-.89.48-1,.81l-.3-.15h-.18v.15h.35V36l-1.47.48c0-.23-.11-.35-.33-.35v.2q.33,0,.33.3l-.33.2h-.15v-.35H32.5a1.93,1.93,0,0,1-.13.48c-.75,0-2.06-.59-3.92-1.78.11,0,.16-.05.16-.15a.8.8,0,0,1-.66-.35l.2-.29V34H27.8v-.83l-.18-.33H28a1.36,1.36,0,0,0-.15-.48l.15-.95v-.5c.26,0,.43-.33.5-1,.63-.48.95-.91.95-1.28l.35.11c.16,0,.37-.47.64-1.42h.17v.5h.16c0-.34.16-.5.48-.5V27.2h-.33a.14.14,0,0,1-.15.16l-.16-.31c.15,0,.47-.23,1-.68Zm-3,20.35v.31h.16v-.31ZM29,31v.51h.2V31Zm.51,15.08v.33h.13v-.33Zm0,.94v.18h.31V47Zm.48-.94v.13h.33v-.13Zm.16-16.88v.2h.5v-.2Zm.3,16.06v.16h.36v-.16Zm.2.66h.49v-.35a1.2,1.2,0,0,1-.49.2Zm.16-18.83h.33c0-.2-.11-.31-.33-.31Zm1,8.13v.16h.29v-.16Zm0,7v.31h.29v-.31Zm.16,2.92v.31h.13v-.31Zm1.49-.35v.35h.15v-.35Zm.62-1.3h.83v-.33a1.5,1.5,0,0,1-.83.18Z" transform="translate(0 0)"/><path class="cls-1" d="M48.93,24.92a4.31,4.31,0,0,1,1.14-.18,4,4,0,0,1,1.1,1.17,1.6,1.6,0,0,1,1.48,1v.31a1.46,1.46,0,0,1-.16.66,6.39,6.39,0,0,1,.31,1.28,45,45,0,0,0-2.29,4.21q-1.89,2.73-4.32,2.73l-.33.5v.33c0,.58,0,1.5.15,2.77a9.71,9.71,0,0,0,5.16-4.39h.68V36a14.86,14.86,0,0,0,.29,1.62c-.29.14-.89,1.11-1.78,2.93-.26.7-.48,1.07-.64,1.12l.16.33v.32a1.22,1.22,0,0,0-1.12.8c-.22,0-.66.27-1.3.83-1.63-.31-2.44-.69-2.44-1.16a13.09,13.09,0,0,1-2.9-1.12c-.38,0-.87-.33-1.47-1a11.08,11.08,0,0,1-.95-2.26h.14l-.14-.33v-1a1.63,1.63,0,0,0-.15-.79c0-2.63,1.07-5.43,3.21-8.42,1.64-2.08,3.26-3.12,4.88-3.12Zm-2.11,8.26c.33,0,.93-.65,1.81-1.93.2,0,.35-.38.46-1.13-1.1,0-1.86.82-2.27,2.44Z" transform="translate(0 0)"/><path class="cls-1" d="M58.91,21.29h1.73c0,.13.18.35.53.64H61a1.4,1.4,0,0,0,1,1.14c.22.44.49.66.82.66a.14.14,0,0,1-.16.15A7,7,0,0,0,63.41,26q0,.18-.15.18l.48.79c-.14.67-.37,1-.68,1v.15h.35c0,.53-.11.79-.35.79l.2.31v.35L63,29.4h-.53V30l.64-.46v.18c0,.1,0,.15-.11.15l.11.31c-.12.41-.26.62-.44.62l.16.35q0,.29-.51.48l.15.33a1.61,1.61,0,0,1-.81,1.3.7.7,0,0,1-.79.79l.15.35a5.36,5.36,0,0,0-1.45,2.06c0,.14.06.2.18.2a1.53,1.53,0,0,1-.18.51,7.15,7.15,0,0,1,.18,1.27h-.18l.18.35c0,.53-.11.79-.33.79l.15.31v.51c0,.09-.05.13-.15.13l.33.68q0,.48-.51.48a1.08,1.08,0,0,1,.33.64l-.15.33q0,.18.15.18A10.41,10.41,0,0,1,59,45.26c.22,0,.33.12.33.31v.35l-.33.49h.33c0,1-.15,1.45-.46,1.45V48h.28v.18a2,2,0,0,1-.28.94,1.72,1.72,0,0,1,.13.66V50c-.32,0-.48.09-.48.28l.35.51v.15h-.35v.31q.48,0,.48.18c0,.54-.1.81-.31.81l.18.33-.51.64v.15h.16V53h.17l.18.81c-.12.93-.18,1.46-.18,1.61s.18.06.18.17l-.35.16.17.31c0,.13-.06.19-.17.19l.17.33v.47a.3.3,0,0,1-.33.33l.16.32v.62H58.4v-.29h-.33c0,.17.22.38.66.64a.82.82,0,0,0-.17.44c.11,0,.17.07.17.2l-.33.15.16.82a.31.31,0,0,1-.35.35c0-.11-.05-.16-.14-.16l-.17.29c.67,0,1,.39,1,1.16l-.18.33,1.12,2.44H60l-.16.29a2.87,2.87,0,0,0,.33,1q-.48,0-.48.33l-.33-.16a6.42,6.42,0,0,0-1.78.79c0-.14-.37-.36-1.12-.63h-.16c0,.2-.05.3-.17.3-1.41-.3-2.11-.9-2.11-1.78v-.13h.31c0-.23-.11-.35-.31-.35v.35h-.35a1.66,1.66,0,0,0-.31-1.16c.1,0,.15-.07.15-.2a.13.13,0,0,1-.15-.15h.15A11,11,0,0,1,53,61.3a1.31,1.31,0,0,0,.2-.79h-.35v-.83l.15-.33h-.31v-.2c0-.06.06-.09.16-.09a2.56,2.56,0,0,1-.35-1.32c0-.11.06-.17.19-.17l-.19-.31V55.63c0-.11.06-.17.19-.17l-.19-.33v-.48l.19-.33c-.13,0-.19,0-.19-.11h.35l-.16-.69c.11-1.62.16-2.7.16-3.25.1,0,.15,0,.15-.13h-.15l.35-1a1,1,0,0,1-.2-.62l.2-.32v-.51h.13v-.33a1.59,1.59,0,0,0-.13-.64,10.41,10.41,0,0,0,.44-1.6l-.16-.81c.08-1,.19-1.45.33-1.45l-.17-.35v-.16c0-.1.06-.15.17-.15l-.17-.33a.15.15,0,0,1,.17-.16c0-.1-.05-.15-.17-.15l.35-2h-.18a1.43,1.43,0,0,0,.18-.5l-.51-.64-.28.18h-.35l-.35-.18c0,.31-.1.46-.29.46l-.33-.11c-.32,0-.48.15-.48.44h-.82a.13.13,0,0,1-.15-.15c-.12,0-.17,0-.17.15l-.84-.15-.29.15a1.73,1.73,0,0,0-.79-.33c0,.12-.06.18-.19.18L48,38.8c0-.45.21-.68.49-.68l-.14-.28a2,2,0,0,0,.93-.51q4.41-.81,5-1.29l-.16-.36v-.15h.33v-.31c0-.13-.06-.2-.17-.2l.17-.28a1.34,1.34,0,0,0-.17-.68l.35-.64-.18-.31.18-.79h-.18l.33-1.16-.15-.35.15-1.61a1.18,1.18,0,0,1-.15-.46c.26,0,.53-.55.79-1.65h.18l-.18-.31a2.37,2.37,0,0,0,.31-.94h-.13c.8-2.07,1.55-3.27,2.24-3.6,0-.18.33-.44,1-.79ZM53,52.69v.18l.48.33V53Zm.81-5.16v.33H54v-.33Zm0,.66v.15h.33v-.15Zm0,8.43v.11h.33v-.11ZM54.51,64v-.31q-.21,0-.48.51A.85.85,0,0,1,54.51,64ZM56.6,49.46V50a.31.31,0,0,0,.35-.35v-.18Zm1.14,10.39V60h.33v-.16ZM59.7,30a1.34,1.34,0,0,1,.15.66H60a6.62,6.62,0,0,0,.81-2.11h-.18l.18-.3V27.6c0-.21-.1-.31-.29-.31A7.83,7.83,0,0,0,59.7,30Z" transform="translate(0 0)"/><path class="cls-1" d="M74.64,28.78a7.81,7.81,0,0,0,2.26.36v-.36h.33c.11,0,.16.06.16.18l.33-.18c.66,0,1,.45,1,1.34-.14,0-.2.06-.2.16.42,0,.64.32.64,1h.19v-.33l.31.19c-.16.55-.42.82-.79.82v.13c0,1.3-.12,1.95-.35,1.95,0,.11.06.16.2.16l-.2.81v1.6h.2c.39-.22,1.53-1.72,3.4-4.52.84-.69,1.25-1.24,1.25-1.65,1.2-.23,1.81-.44,1.81-.61l.3.15c2.08,0,3.12.21,3.12.64V33c0,.12-.06.18-.19.18a1,1,0,0,1,.19.48,1.29,1.29,0,0,0-.19.51h.19l-.19.31.19.32c0,.11-.22,1-.68,2.6a1,1,0,0,0,.18.48A5.77,5.77,0,0,1,87.58,40c.13,0,.2.49.2,1.43h-.53v.18a2,2,0,0,1,.53.13l-.53,1,.18.33-.18.33.18.68c-.15.29-.26.44-.35.44s.06.19.17.19A2.53,2.53,0,0,1,86.79,46c0,.13,0,.2.16.2q-.17,1.44-.33,1.44c.24,1.31.46,2,.63,2h.33q.36,0,3.1-3.08h.46c.22,0,.33.11.33.31,0,2-.32,3.28-1,3.74,0-.11-.06-.16-.18-.16l.18.29v.15l-.31-.15A6.07,6.07,0,0,0,89,52.16h-.15c-1.08.05-1.63.15-1.63.31a9.3,9.3,0,0,1-3.89-1.12l.2-.33c-.42,0-.63-.12-.63-.35a36.47,36.47,0,0,1-1.32-3.54l.15-.33c-.07-.42-.18-.63-.31-.63l.16-.36v-.94a.14.14,0,0,0-.16-.16l.16-.35v-1h.33l-.18-.33v-1l.81-3.87a.15.15,0,0,1-.17-.17c.11,0,.17-.06.17-.18h-.46a15.25,15.25,0,0,0-2,3.25c-.18,0-.57.49-1.17,1.45h-.48v.16h.35v.17h-.51l-.46-.33h-.35v.33c-.1,0-.15-.06-.15-.17l-.33.17h-.33a.15.15,0,0,1-.16-.17l-.3.17h-.18a6.21,6.21,0,0,1-2.24-.64L74,42v-.2h-.15a1,1,0,0,1-.53.2,6,6,0,0,1-.81-1.65c.22,0,.33-.1.33-.29h-.33v-.5q.39,0,.51-.66c-.25,0-.42-.21-.51-.62h.33a1.71,1.71,0,0,1-.15-.5l.15-.33a1.32,1.32,0,0,1-.15-.62c0-.23.21-.35.63-.35v-.15c-.42,0-.63-.38-.63-1.15h.15l-.15-.33V33.66a1.58,1.58,0,0,1,.5-1.1c0-.13-.06-.19-.17-.19l.17-.8v-.32L73,30.12A8.34,8.34,0,0,0,74.14,29a1.2,1.2,0,0,0,.65.18ZM73,33.53c.2,0,.3-.12.3-.35h-.13c-.23,0-.35.15-.35.35Zm.3,3.25v.13h.35v-.13Zm.18,3.52c.23,0,.35-.1.35-.29v-.15c-.23,0-.35.09-.35.28ZM74,29.47v.33h.29v-.33Zm3.54,8.41v.35h.18v-.35Zm4.22,5.85v.17h.35v-.17Zm.35-6.82v.16h.29v-.16Zm0,.31v.35h.46v-.35Zm.46,12.15c0,.24.13.35.36.35v-.15a.32.32,0,0,0-.36-.35Zm2,1.3V51h.28v-.35Zm.81-4.07v.2h.33v-.2Zm.64,0v.2h.48v-.2Zm0,.68v.33c.2,0,.31-.1.31-.33Zm.17.49v.17h.31v-.17Zm.8-4.53v.31h.13v-.31Z" transform="translate(0 0)"/><path class="cls-1" d="M92.35,25.18v.48h.15v-.48h.84a.13.13,0,0,1,.15.15q.18,0,.18-.15a22.84,22.84,0,0,1,3.89,1A.93.93,0,0,1,98,26q0,.33.48.33v.35c0,.09,0,.13-.15.13,0,.63.75,1.07,2.26,1.32,0,.11.06.16.18.16s.15-.05.15-.16l.84.46-.18-.3V28.1h.18l.46.29a2.27,2.27,0,0,1,1-.29c0,.43.38.79,1.16,1.1l.29-.13c0,.22.16.33.5.33v1.12a1.78,1.78,0,0,1,.51,1.12V32a1.06,1.06,0,0,1-.2.64,1.14,1.14,0,0,1,.2.66v.5l-.36.46v.18c0,.12.06.18.16.18-.31,1.94-.84,3.23-1.61,3.86,0,.71-.8,1.79-2.41,3.25a7.12,7.12,0,0,1-2,1.28c0-.09,0-.13-.15-.13l.15.28v.18c-1.73.51-2.59.84-2.59,1q-3.83,0-4.68-2c-.22,0-.61-.55-1.16-1.65l.17-.28v-.16c-.25,0-.52-.66-.81-2,.11,0,.17-.05.17-.16h-.33c0-.86.23-1.29.64-1.29v-.16a.76.76,0,0,1-.48-.2.32.32,0,0,1-.35.36L89.91,36a1.2,1.2,0,0,1,.16-.66c-.11-.53-.2-.79-.29-.79a9.73,9.73,0,0,1,.48-2.42h-.19c.13-.12.19-.62.19-1.5l.33.14h.11l-.28-.8c.2,0,.47-.58.81-1.75h.15c0,.08.06.13.18.13V28.1h-.33c0-.23.12-.35.33-.35,0,.13,0,.2.15.2V27.6h-.33v-1l.33.13v-.13c0-.23-.11-.35-.33-.35A3.63,3.63,0,0,0,92,25.18ZM90.26,33l-.19,1h.35a1.65,1.65,0,0,1,.17-.84Zm.16-1.8v.35h.17v-.35Zm6,5.23-.13,1.1c.21,2,.47,3,.79,3,.93-.13,1.91-1.15,3-3,0-.28-1-.55-3.1-.82,0-.19-.11-.28-.33-.28ZM98.7,33a1,1,0,0,1-.2.66.3.3,0,0,1,.33.33l-.13.28a2.53,2.53,0,0,0,1.45.64h.29a1.31,1.31,0,0,1,.17-.46c-.3,0-.51-.26-.61-.79s-.41-.66-.51-.66Zm6.31.31v.15h.3v-.15Z" transform="translate(0 0)"/><path class="cls-1" d="M117.22,25.4a3.72,3.72,0,0,1,3.08,1.3h.15V28c0,.11,0,.16-.15.16l.15.35v.28A4.42,4.42,0,0,0,119,31.57a25.39,25.39,0,0,0-.94,4.86h-.51v.15h.35l-.35,1.94h.15a15.27,15.27,0,0,0-.44,2.61h.14l-.14.31v.31h.14q.77,0,5.82-4.35c.36-.88.64-1.32.81-1.32s.35-.15.35-.44h.29a4.4,4.4,0,0,1,.53,1.58v.18c0,.11-.06.17-.18.17l.18.31a2.78,2.78,0,0,0-1,2c-.12,0-.51.53-1.17,1.58-1.28,1.07-1.93,1.72-1.93,2h-.15l-.35-.16-.14.31c.09,0,.14.06.14.18a8.08,8.08,0,0,0-.82.63h-.13l-.33-.17.16.33c0,.48-.54.81-1.61,1h-.35l-.48-.36a3.23,3.23,0,0,0-1.12.36,1.27,1.27,0,0,0-.49-.16v.16q-.63-.13-.63-.36l-.33.2c-1.31-.79-2-1.49-2-2.11l.15-.33q-.39,0-.63-1.47c.11,0,.17,0,.17-.15q-.33,0-.33-.36c.11,0,.16,0,.16-.13h-.16a3.44,3.44,0,0,0,.33-1.12l-.17-.35A16.11,16.11,0,0,1,113.29,36l-.13-.31.48-.66v-.5c-.16,0-.37-.16-.63-.47l.15-.35v-.13h-.35c0,.28-.81.81-2.42,1.6a14.79,14.79,0,0,1-1.27,2.27l.11.33a9.15,9.15,0,0,0-1.08,2.92l.15.28c-.74,1.75-1.73,2.62-2.94,2.62l-.64.53a1.1,1.1,0,0,0-.64-.18v-.17a1.34,1.34,0,0,1,.82-1.28l-.18-.35v-.48l.49-.69c0-.19-.11-.28-.31-.28a4.14,4.14,0,0,1,.46-1.45l-.15-.35a9.31,9.31,0,0,0,1.14-2.42l1.45-2.26,2.28-1.61c.71,0,2.27-1.4,4.71-4.22a6.85,6.85,0,0,1,1-2.61,1.2,1.2,0,0,0,.48.18ZM105.53,38.52v.33h.16v-.33Zm1.81,1c0,.23.11.35.3.35v-.35Zm.63,0v.17h.33v-.17Zm4.22,1.29v.13h.31V40.8Zm.31-2.57v.16c0,.2.13.3.31.3v-.46Zm.15,1v.13H113V39.2Zm0,2.09v.33h.16v-.33Z" transform="translate(0 0)"/><path class="cls-1" d="M130.61.15l.83-.15c.81.12,1.5.76,2.07,1.93.16,0,.44.38.83,1.12-.15,0-.36.39-.66,1.17a1,1,0,0,1,.18.61c0,.43-.18.64-.53.64v.2c.07.22.19.33.35.33l-.17.28a8.61,8.61,0,0,1,.17,1.45c0,.12-.06.18-.17.18l.17.33c0,.16-.15.32-.46.48a4.59,4.59,0,0,1,.29,1.32c0,.43-.2.64-.46.64.18,1.29.28,2.09.28,2.42-.18,0-.32.48-.44,1.45l.33,1a1.73,1.73,0,0,1-.68.79c0,.11.05.17.15.17a4.54,4.54,0,0,1-.44,1.94c.19,0,.29.13.29.3v.51q0,.33-.48.33l.35.46c-.12,1-.34,1.45-.66,1.45l.15.33v.64c0,.13-.05.2-.15.2l.15.3v.66a3.3,3.3,0,0,1-.46,1.61.29.29,0,0,1,.31.33v.48l-.66.2v.11l.66.68c-.24,0-.4.36-.51,1.1a1.14,1.14,0,0,1,.2.52h-.2a.78.78,0,0,1,.2.47,5.21,5.21,0,0,0-.53,1.62c.12,0,.18,0,.18.16-.43.16-.64.33-.64.5v.15h.35l.29-.15.15.31a1,1,0,0,1-.63.2v.13c.42,0,.63.1.63.31l-.33.19h-.11v-.35c-.23,0-.35.13-.35.35.53.27.79.47.79.62h-.15c0,.12,0,.17.15.17,0,.21-.05.31-.15.31l.15,1.63v1.62c.28.55.5.82.66.82h.16a6.8,6.8,0,0,0,1.62-3.1l.66-.46h.33c.26,0,.53.7.79,2.11-.53,2.58-1.12,3.86-1.78,3.86a6.77,6.77,0,0,1-1.93,2.31v.13l.15.33-.31.16c-.1-.33-.43-.49-1-.49a.14.14,0,0,0-.16.16l-.66-.29c0,.15-.17.3-.5.46h-.46c-.11,0-.16-.06-.16-.17a1.77,1.77,0,0,1-1,.33h-.15a2.53,2.53,0,0,1-2.11-1v-.48a2,2,0,0,1-1.27-1.76h.17c-.32-1-.55-1.47-.7-1.47l.2-.33v-.18q-.33,0-.33-.15c0-.11,0-.16.13-.16l-.31-2.77h.18l-.18-.32a3.84,3.84,0,0,1,.31-1.13,6.46,6.46,0,0,1-.13-1.14,1.44,1.44,0,0,0,.13-.48c-.09,0-.13-.05-.13-.16a1.45,1.45,0,0,1,.66-.15v-.31H124l-.35.14-.13-.33v-.16a1.84,1.84,0,0,1,.48-1.14l-.48-.31a2.41,2.41,0,0,1,.48-1.45h-.35v-.15a.18.18,0,0,1,.2-.2l-.2-.31c.06-.2.17-.31.35-.31-.12-.55-.28-.83-.48-.83a2.73,2.73,0,0,1,.48-1.14c-.16,0-.32-.16-.48-.46l.48-2-.15-.29v-.35c0-.76.26-1.14.79-1.14v-.13h-.16a1.73,1.73,0,0,1-.48.13l-.15-.31.15-.33a1.05,1.05,0,0,1-.15-.46c.35,0,.56-.45.63-1.34-.2,0-.3,0-.3-.13.29-3.46.66-5.61,1.09-6.46a1.68,1.68,0,0,0-.13-.51c.33-1.76.6-2.63.82-2.63l-.2-.29q.63-5,1.14-5c-.19-1.13-.29-1.72-.29-1.78l.8-.66h.46v.33h.35c0-.42.53-.8,1.6-1.12Zm-6.79,24a.3.3,0,0,0,.33.33l.17-.33Zm0,4.21v.33H124v-.33Zm0,4.22a1.08,1.08,0,0,1,.5-.19v-.31a2.75,2.75,0,0,1-.5-.13Zm.15-8v.13h.35v-.13Zm1.14-10.06v.5c.21,0,.31-.11.31-.33Zm3.56,15.07V30h.16v-.33Zm.16-29V.94H129V.62Zm1,24.63v.33h.33v-.33Zm.49,2.61.33.13c.2,0,.3-.09.3-.28s-.1-.35-.3-.35Zm1-7.47v.18h.35v-.18Zm.2,2.75v.35h.15v-.35Zm.46-5.83h.35a.31.31,0,0,0-.35-.35Zm.51-2.92v.33h.13v-.33Z" transform="translate(0 0)"/><path class="cls-1" d="M139.48,26.15l.35-.18c1.61.4,2.42.94,2.42,1.63a1.72,1.72,0,0,0-.35,1h.2c-.13.66-.25,1-.33,1l.13.33a1.74,1.74,0,0,1-.13.64,1.87,1.87,0,0,1,.13.64c0,.1-.05.15-.13.15l.13.33c-.09.35-.18.53-.29.53l.16.28V33h-.31c0,.2.15.31.44.31v.15l-.29.53c.11,0,.16,0,.16.11h-.16a1.36,1.36,0,0,1,.16.53c0,.52-.11.79-.31.79l.15.3v1c0,.22-.17.33-.5.33.26,1.5.48,2.24.66,2.24h.13a1.87,1.87,0,0,1,.83-.44c.88,0,1.32.18,1.32.44a8.49,8.49,0,0,0-.35,2.11l.18.35c0,1.06-.81,1.92-2.42,2.6a14.29,14.29,0,0,0-3.43-.64v-.2l-.28.2c-.63,0-1.34-.6-2.14-1.8h-.17l.17-.31c-.32,0-.54-.38-.65-1.14v-.16a1.43,1.43,0,0,0,.17-.5c-.23,0-.35-.1-.35-.31s.06-.2.18-.2l-.18-.33a.93.93,0,0,0,.18-.46c-.12,0-.18-.06-.18-.17l.35-.16-.17-.28v-.2l.17-.81H135a5.62,5.62,0,0,0,.33-1.45h.15l.33.15v-.15a.15.15,0,0,1-.16-.16c.41,0,.62-.11.62-.35v-.13h-.13l-.66.48v-.48a1.4,1.4,0,0,1,.17-.68,1.28,1.28,0,0,1-.17-.64v-.31c.34,0,.56-1,.66-2.92l-.16-.64c0-.66.16-1,.47-1V28.1l-.18-.35c.23,0,.35-.1.35-.31-.32-.1-.48-.43-.48-1,0-.15.32-.58,1-1.28Zm-3.07,7.27v.2h.32v-.2Zm9.71-19.27c0-.1.06-.15.19-.15v.15a4.69,4.69,0,0,0-.48,2,4.93,4.93,0,0,0-2.61,2.24c0,.16-.21.37-.62.64l.13.33q0,.43-2.43,1a14.3,14.3,0,0,1-3.06-1v-.49l.31.16h.2v-.16h-.35a9.32,9.32,0,0,0,1.6-1.93c.39,0,1.36-.76,2.9-2.29.35-.11.78-.23,1.27-.35s1.26-.32,2-.48A2.47,2.47,0,0,0,146.12,14.15Zm-7.74,24.48v.28h.16v-.28Zm.29-5.67v.31h.15V33Zm1.16,5.49v.35H140v-.35Z" transform="translate(0 0)"/><path class="cls-1" d="M158.11,26.3a9.82,9.82,0,0,0,1.81,2,6.42,6.42,0,0,0,.63,1.29.3.3,0,0,0-.28.33c.32,0,.58,1.18.79,3.54l-.35-.15v.35h.35V34c0,.07-.06.11-.18.11a6.44,6.44,0,0,1,.33,2.13h-.15c0,.13.05.2.15.2l-.15,1.1v1.6h.46A2.49,2.49,0,0,1,163,37.64c.35,0,.62.39.81,1.16a5.1,5.1,0,0,1-.94,2.9c0,.71-.59,1.18-1.78,1.43a1.53,1.53,0,0,0-.51-.15v.33h-.13V43l-.81.15c0-.14-.66-.36-2-.63A2.08,2.08,0,0,1,156.49,41v-.15h.5l-.15-.35c.1,0,.15,0,.15-.13h-.15c-.23,0-.35.16-.35.48h-.13l-.16-1a1.08,1.08,0,0,0,.16-.46,1,1,0,0,0-.51-.2v-1.6a1.29,1.29,0,0,0-.15-.64l.35-.81a1.16,1.16,0,0,1-.2-.51h.2l-.2-.3v-.16l.2-1c0-.11-.07-.17-.2-.17l.2-.79v-.82c0-.08-.07-.13-.2-.13l.2-.35v-.33c0-.22-.12-.33-.35-.33a26.9,26.9,0,0,0-2,4.55c-.25,1-.46,1.57-.64,1.63l.14.35V38c-.27,0-.47.48-.62,1.45-.17,0-.34.37-.48,1.1-.15,0-.47.71-1,2.13-.23,0-.39.21-.48.64a1.52,1.52,0,0,1-.66.15h-.51v-.33h-.15v.33h-.18l-.3-.15v.15l-.33-.15-.29.15a1,1,0,0,1-.35-.61l-.64.13c-1.08-.21-1.62-.63-1.62-1.28l-.35-1h.19L145,38.63c.07-.34.17-.51.29-.51-.11-.74-.2-1.12-.29-1.12l.13-.33v-.28c0-.13,0-.2-.13-.2l.13-.33c0-.12,0-.18-.13-.18.25-1.15.46-1.73.64-1.73a9,9,0,0,0-.35-1.78,36.55,36.55,0,0,0,.65-3.61c.11,0,.16,0,.16-.17V26.78a.34.34,0,0,1,.35-.32v.19l.28-.19q1.35.43,1.35,1.29h.17c.19,0,.29-.1.29-.31.38,0,.77.49,1.16,1.45a1,1,0,0,0-.2.51c-.1,0-.15-.07-.15-.2l-.81.2h-.16l-.63-.51-.16.31c.1,0,.16.07.16.2a.93.93,0,0,0-.66.61c.33-.05.5-.15.5-.28l.31.15.35-.15v.46h.13c.22,0,.33-.1.33-.31-.12,0-.17-.05-.17-.15h.63l.18.28h-.48v.18h.48q0-.18.15-.18l.51,1.15a.13.13,0,0,1-.15.15l.15.86c-.1,1.33-.15,2-.15,2.06H150c.26,0,.53-.48.79-1.45.2,0,.59-.75,1.16-2.26h.16c.64,0,1,.37,1,1.12h.14c.55-.29.83-.5.83-.64s-.36-.21-.66-.63h-.31l.14-.36c-.24,0-.39-.27-.46-.81a1.73,1.73,0,0,0,.32-.81h.14l.35.17c0-.14.22-.35.66-.61V27.6l.31.15.33-.15c0,.33.1.5.3.5h.2a.13.13,0,0,0,.15-.15l.31.15h.35l.29-.15c.06.2.17.31.35.31H157V28.1h-.33V28c.77-.86,1.15-1.41,1.15-1.65Zm-12.8,10.53v.5h.19v-.5ZM147,28.74v.15h.33v-.15Zm.82,0v-.35c-.22.06-.33.17-.33.35Zm.33,1.93V31h.17v-.33Zm3.22,8.57v.2h.31v-.2Zm1.3-1.4-.17.28h.17l.16-.28Zm1.32-9.28v.33h.13v-.33Zm2.11,9.72v.17h.31v-.17Zm0,.63v.18h.31v-.18Zm.61-1.27V38h.18v-.35Z" transform="translate(0 0)"/></svg>